<svg xmlns="http://www.w3.org/2000/svg" viewBox="0 0 500 500"><g id="freepik--background-simple--inject-5"><path d="M44.41,320.29s26.73,70.51,102.13,96.87,158.5.42,226.37-18.81,105.85-75.29,93.95-135.2-68.33-58.53-118.12-113.74S294.07,71.94,222.19,52.76,67.71,90.75,43.48,176.39,44.41,320.29,44.41,320.29Z" style="fill:#92E3A9"></path><path d="M44.41,320.29s26.73,70.51,102.13,96.87,158.5.42,226.37-18.81,105.85-75.29,93.95-135.2-68.33-58.53-118.12-113.74S294.07,71.94,222.19,52.76,67.71,90.75,43.48,176.39,44.41,320.29,44.41,320.29Z" style="fill:#fff;opacity:0.7000000000000001"></path></g><g id="freepik--Clouds--inject-5"><path d="M202.46,83.63a21.49,21.49,0,0,0-5.13,9.66,12.77,12.77,0,0,0-16.56-3.51,25,25,0,0,0-49.39-3,16.28,16.28,0,0,0-22.19-.61" style="fill:none;stroke:#263238;stroke-miterlimit:10"></path><path d="M270.65,57.24a33.4,33.4,0,0,0-5.13-.39,33,33,0,0,0-32.26,26,21.43,21.43,0,0,0-26.1-3.1" style="fill:none;stroke:#263238;stroke-miterlimit:10"></path><path d="M289.19,66.87a32.83,32.83,0,0,0-7.95-6" style="fill:none;stroke:#263238;stroke-miterlimit:10"></path><path d="M277.31,99h61a10.68,10.68,0,0,0-15.67-3,16.87,16.87,0,0,0-24.24-9.18A32.82,32.82,0,0,0,292.1,70.3" style="fill:none;stroke:#263238;stroke-miterlimit:10"></path><path d="M106.64,89a16.26,16.26,0,0,0-3,9.37c0,.2,0,.4,0,.6h161.6" style="fill:none;stroke:#263238;stroke-miterlimit:10"></path><path d="M323,109.84a14.67,14.67,0,0,0-23.86,8.08,9.53,9.53,0,0,0-16,4.62,5.72,5.72,0,0,0-7.37-1.56,11.13,11.13,0,0,0-22-1.34,7.25,7.25,0,0,0-12.33,5.17c0,.09,0,.17,0,.26H345.87a4.78,4.78,0,0,0-7-1.31,7.5,7.5,0,0,0-10.78-4.08,14.16,14.16,0,0,0-.66-3.22" style="fill:none;stroke:#263238;stroke-miterlimit:10"></path></g><g id="freepik--Mountain--inject-5"><path d="M48.73,232.83s137.15-127.28,152.86-128.2C217.13,103.72,328.71,219,328.71,219s76.82-66.76,85.05-66.76S433,166.82,433,166.82" style="fill:none;stroke:#263238;stroke-linecap:round;stroke-linejoin:round"></path><line x1="294.87" y1="197.92" x2="287.96" y2="191.32" style="fill:none;stroke:#263238;stroke-linecap:round;stroke-linejoin:round"></line><line x1="216.36" y1="132.47" x2="240" y2="154.02" style="fill:none;stroke:#263238;stroke-linecap:round;stroke-linejoin:round"></line><line x1="208.9" y1="125.67" x2="213.3" y2="129.67" style="fill:none;stroke:#263238;stroke-linecap:round;stroke-linejoin:round"></line><line x1="280.39" y1="184.08" x2="233.6" y2="139.38" style="fill:none;stroke:#263238;stroke-linecap:round;stroke-linejoin:round"></line></g><g id="freepik--Trees--inject-5"><path d="M447.65,404c-.91-7.23-13.56,3.62-13.56,3.62a38.69,38.69,0,0,0,2.71-13.56c0-7.23-9,1.8-9,1.8s6.33-11.75,5.43-24.4-14.47,1.81-14.47,1.81,5.43-19,6.33-24.41-25.31,6.33-25.31,6.33,1.81-8.14,2.71-16.27c.47-4.16-4-2.43-8.52.26-1-3.62-3.67-3.87-6.64-2.74.19-.9.4-1.88.63-2.93,1-4.87-5.94.62-11.71,5.81a27.6,27.6,0,0,0-8.1-16.67c-4.37-4.37-9.08.5-13,7.34l-6.49,2c-.08-1.26-.21-2.56-.4-3.9-1.17-8.18-8,.64-12.69,7.9l-5,1.54c-.8-5.12-2.76-12.59-7.58-18.48-8.13-9.94-27.12,18.08-27.12,18.08s-11.75-19-16.27-9,1.81,30.74,1.81,30.74-2.71-7.24-6.32-9-13.56,6.32-13.56,6.32,5.42-12.65,0-17.17c-4.91-4.09-11.28,10.29-12.46,13.09.83-2.12,4-11.3,1.61-23.94-2.71-14.46-13.56,4.52-13.56,4.52s1.81-18.08-8.13-20.79,4.52,0-5.43,18.08-6.32-12.65-20.79-10.85-10.84,56.05-10.84,56.05L134.9,342.56s-2.71-5.43-11.89-7.07S119.54,348,119.54,348s-12.66-11.75-18.08-11.75c-1.41,0-5.74,6.27-11.38,15.55-.41-.95-.83-1.92-1.27-2.9-3.43-7.53-6.33,9.31-7.54,17.92l-1,1.73C79.54,364.3,77.41,357,71.63,357c-7,0-3.29,24.12-2.12,30.82l0,.08c-.9-3.81-3.49-13-7.78-13.73-5.42-.9-.91,19.89-.91,19.89s-3.61-2.71-6.32-2.71c-2,0,.77,12.61,2.45,19.7C51.25,421.65,47.38,429,47.38,429l36-19.57H272.57l-9.15,12.66H444S448.55,411.25,447.65,404Z"></path><path d="M229.15,421.88h6.57l4-145,8.42-25.36-8.87,16.71,1.31-16.32,14.2-28.9-13.68,18L240,197.74l-1.86,26.63-6.71-4,5.88,8.9-1.6,31.5-5.31-8.39,4.57,14.93Z" style="fill:#263238"></path><path d="M254.22,431.49c-2.34-9.28-6.17-20.8-11.51-25.1-9.48-7.64-24.9,4.37-33.2-1.09s9.48-58.93-19-62.2-39.14,51.29-52.19,56.74-17.79-14.18-35.58-15.27c-15.55-1-45.61,37.28-52.92,46.92Z" style="fill:#92E3A9"></path><path d="M254.22,431.49c-2.34-9.28-6.17-20.8-11.51-25.1-9.48-7.64-24.9,4.37-33.2-1.09s9.48-58.93-19-62.2-39.14,51.29-52.19,56.74-17.79-14.18-35.58-15.27c-15.55-1-45.61,37.28-52.92,46.92Z" style="opacity:0.46"></path><path d="M191,421.88h6.57l4-145L210,251.47l-8.87,16.71,1.31-16.32,14.2-28.9L203,241l-1.18-43.26L200,224.37l-6.71-4,5.88,8.9-1.6,31.5-5.31-8.39,4.57,14.93Z" style="fill:#c7cacb"></path><path d="M102.59,421.88h6.57l4-145,8.42-25.36-8.88,16.71,1.32-16.32L128.24,223l-13.68,18-1.17-43.26-1.86,26.63-6.71-4,5.88,8.9-1.6,31.5-5.32-8.39,4.58,14.93Z" style="fill:#a8adaf"></path><path d="M291.08,421.88h6.57l4-111.45L310.11,291l-8.88,12.84,1.31-12.54L316.74,269,303.06,282.9l-1.18-33.24L300,270.13l-6.7-3.06,5.88,6.83-1.61,24.21-5.31-6.45,4.57,11.47Z" style="fill:#c7cacb"></path><path d="M214.34,421.88h6.57l4-111.45L233.36,291l-8.87,12.84,1.31-12.54L240,269,226.32,282.9l-1.18-33.24-1.86,20.47-6.71-3.06,5.89,6.83-1.61,24.21-5.31-6.45,4.57,11.47Z" style="fill:#c7cacb"></path><path d="M264.59,421.88h6.56l4-111.45L283.61,291l-8.88,12.84,1.32-12.54L290.24,269,276.56,282.9l-1.18-33.24-1.85,20.47-6.71-3.06,5.88,6.83-1.6,24.21-5.32-6.45,4.58,11.47Z" style="fill:#c7cacb"></path><path d="M410.07,421.88h6.57l4-145,8.42-25.36-8.87,16.71,1.31-16.32,14.2-28.9-13.68,18-1.18-43.26L419,224.37l-6.71-4,5.88,8.9-1.6,31.5-5.31-8.39,4.57,14.93Z" style="fill:#263238"></path><path d="M370.32,421.88h6.56l4-145,8.43-25.36-8.88,16.71,1.32-16.32L396,223l-13.68,18-1.18-43.26-1.85,26.63-6.71-4,5.88,8.9-1.6,31.5-5.32-8.39,4.58,14.93Z" style="fill:#8a9094"></path><path d="M302.17,421.88h6.56l4-145,8.42-25.36-8.88,16.71,1.32-16.32L327.82,223l-13.68,18L313,197.74l-1.85,26.63-6.71-4,5.88,8.9-1.6,31.5-5.32-8.39,4.58,14.93Z" style="fill:#263238"></path><path d="M401.13,431.49c-2-9.28-5.34-20.8-9.95-25.1-8.21-7.64-21.56,4.37-28.74-1.09s8.21-58.93-16.42-62.2-33.87,51.29-45.16,56.74-15.4-14.18-30.79-15.27c-13.46-1-39.47,37.28-45.8,46.92Z" style="fill:#92E3A9"></path><path d="M401.13,431.49c-2-9.28-5.34-20.8-9.95-25.1-8.21-7.64-21.56,4.37-28.74-1.09s8.21-58.93-16.42-62.2-33.87,51.29-45.16,56.74-15.4-14.18-30.79-15.27c-13.46-1-39.47,37.28-45.8,46.92Z" style="opacity:0.25"></path><path d="M288.48,202.44s-14.21,0-18.35,23.09,6.51,29-6.52,40.86-14.8,20.14-8.29,25.47,10.07,11.25,1.78,20.13-9.48,21.91,20.13,30.2,52.11-11.84,53.3-25.46-8.89-22.51-9.48-33.76,20.14-21.91,17.77-37.3-23.69-9.48-29.61-21.32S302.69,202.44,288.48,202.44Z" style="fill:#92E3A9"></path><path d="M288.48,202.44s-14.21,0-18.35,23.09,6.51,29-6.52,40.86-14.8,20.14-8.29,25.47,10.07,11.25,1.78,20.13-9.48,21.91,20.13,30.2,52.11-11.84,53.3-25.46-8.89-22.51-9.48-33.76,20.14-21.91,17.77-37.3-23.69-9.48-29.61-21.32S302.69,202.44,288.48,202.44Z" style="opacity:0.46"></path><path d="M278,426.87h5.19l7.34-144.48,6.66-20-7,13.21,1-12.9,11.22-22.86-10.81,14.27-.94-34.2-1.46,21-5.31-3.14,4.65,7-1.27,24.9-4.2-6.63,3.62,11.8Z" style="fill:#92989b"></path><path d="M199.56,431.49c1.52-8.56,4-19.2,7.49-23.16,6.18-7.05,16.21,4,21.62-1s-6.18-54.38,12.35-57.4,25.48,47.33,34,52.37,11.58-13.1,23.16-14.1c10.13-.88,29.69,34.41,34.45,43.3Z" style="fill:#92E3A9"></path><path d="M199.56,431.49c1.52-8.56,4-19.2,7.49-23.16,6.18-7.05,16.21,4,21.62-1s-6.18-54.38,12.35-57.4,25.48,47.33,34,52.37,11.58-13.1,23.16-14.1c10.13-.88,29.69,34.41,34.45,43.3Z" style="opacity:0.46"></path><path d="M270.16,431.49c-1.37-5.9-3.62-13.24-6.74-16-5.56-4.86-14.59,2.78-19.45-.69s5.55-37.52-11.12-39.6-22.93,32.65-30.57,36.12-10.42-9-20.84-9.72c-9.11-.61-26.72,23.74-31,29.87Z" style="fill:#92E3A9"></path><path d="M79.5,347.14s-13.64,1.44-33-17.22,18.67-84.71,33.74-99.07,46,77.53,34.46,94.76S91,346.43,79.5,347.14Z" style="fill:#92E3A9"></path><path d="M79.5,347.14s-13.64,1.44-33-17.22,18.67-84.71,33.74-99.07,46,77.53,34.46,94.76S91,346.43,79.5,347.14Z" style="opacity:0.46"></path><polyline points="73.75 422.52 75.91 326.33 66.57 316.28 76.62 322.02 76.62 304.79 63.7 289.72 75.91 299.05 74.47 286.85 78.06 292.59 80.21 258.13 81.65 310.53 105.34 297.61 81.65 317.71 81.65 327.04 81.65 425.39" style="fill:#263238"></polyline><path d="M411.32,266.83s-13.64,1.43-33-17.23S397,164.89,412,150.53s46,77.53,34.46,94.76S422.8,266.11,411.32,266.83Z" style="fill:#92E3A9"></path><polyline points="400.32 418.41 407.73 246.01 398.4 235.96 408.45 241.7 408.45 224.47 395.52 209.4 407.73 218.73 406.29 206.53 409.88 212.27 412.04 177.81 413.47 230.22 437.16 217.29 413.47 237.39 413.47 246.73 408.22 421.28" style="fill:#a8adaf"></polyline><path d="M110.12,429a6.05,6.05,0,0,0-2.71-3.9c-2.68-1.46-2.68,0-5.85-1-2.1-.65-1.68-5.38-1.85-7-.53-4.95-3.27-9.23-8.32-10.51A15.31,15.31,0,0,0,77,410.25c-6.09,5.85-5.36,11-9.26,11.21s-6.09-4.63-12.91-1.71c-4.19,1.8-6.36,6.16-7.41,9.26Z" style="fill:#92E3A9"></path><path d="M110.12,429a6.05,6.05,0,0,0-2.71-3.9c-2.68-1.46-2.68,0-5.85-1-2.1-.65-1.68-5.38-1.85-7-.53-4.95-3.27-9.23-8.32-10.51A15.31,15.31,0,0,0,77,410.25c-6.09,5.85-5.36,11-9.26,11.21s-6.09-4.63-12.91-1.71c-4.19,1.8-6.36,6.16-7.41,9.26Z" style="fill:#fff;opacity:0.5"></path><path d="M53.72,428.65s1.08-4.45,4.72-4.85,6.2,5.53,11.6.54,8.63-17.67,17-17.26,8.23,10.52,7.28,14.7,4.59,4,7,3.5,5.26,2.16,5.26,3.78" style="fill:none;stroke:#263238;stroke-linecap:round;stroke-linejoin:round;stroke-width:0.9038841385881715px"></path><line x1="61.27" y1="428.92" x2="58.31" y2="426.23" style="fill:none;stroke:#263238;stroke-linecap:round;stroke-linejoin:round;stroke-width:0.9038841385881715px"></line><line x1="79.34" y1="429.06" x2="87.3" y2="412.88" style="fill:none;stroke:#263238;stroke-linecap:round;stroke-linejoin:round;stroke-width:0.9038841385881715px"></line><polyline points="83.25 414.09 84.2 419.35 90.54 415.84" style="fill:none;stroke:#263238;stroke-linecap:round;stroke-linejoin:round;stroke-width:0.9038841385881715px"></polyline><polyline points="78.13 419.48 81.37 425.42 87.7 423.39" style="fill:none;stroke:#263238;stroke-linecap:round;stroke-linejoin:round;stroke-width:0.9038841385881715px"></polyline><path d="M244.09,427.34a6.7,6.7,0,0,0-3-4.31c-3-1.62-3,0-6.47-1.08-2.32-.71-1.86-5.94-2.05-7.73-.58-5.48-3.61-10.21-9.2-11.63a17,17,0,0,0-16,4c-6.74,6.47-5.93,12.13-10.24,12.4s-6.74-5.12-14.29-1.89c-4.63,2-7,6.81-8.19,10.24Z" style="fill:#92E3A9"></path><path d="M244.09,427.34a6.7,6.7,0,0,0-3-4.31c-3-1.62-3,0-6.47-1.08-2.32-.71-1.86-5.94-2.05-7.73-.58-5.48-3.61-10.21-9.2-11.63a17,17,0,0,0-16,4c-6.74,6.47-5.93,12.13-10.24,12.4s-6.74-5.12-14.29-1.89c-4.63,2-7,6.81-8.19,10.24Z" style="fill:#fff;opacity:0.5"></path><line x1="190.05" y1="427.24" x2="186.77" y2="424.26" style="fill:none;stroke:#263238;stroke-linecap:round;stroke-linejoin:round"></line><line x1="210.04" y1="427.39" x2="218.84" y2="409.49" style="fill:none;stroke:#263238;stroke-linecap:round;stroke-linejoin:round"></line><polyline points="214.37 410.83 215.41 416.65 222.42 412.77" style="fill:none;stroke:#263238;stroke-linecap:round;stroke-linejoin:round"></polyline><polyline points="208.7 416.8 212.28 423.37 219.29 421.13" style="fill:none;stroke:#263238;stroke-linecap:round;stroke-linejoin:round"></polyline><path d="M132.69,134.66s-20.47,0-26.44,33.26,9.38,41.79-9.38,58.84-21.32,29-11.93,36.67,14.49,16.2,2.55,29-13.64,31.56,29,43.5,75-17.06,76.75-36.67-12.8-32.41-13.65-48.61,29-31.55,25.58-53.72-34.11-13.65-42.63-30.7S153.16,134.66,132.69,134.66Z" style="fill:#92E3A9"></path><path d="M132.69,134.66s-20.47,0-26.44,33.26,9.38,41.79-9.38,58.84-21.32,29-11.93,36.67,14.49,16.2,2.55,29-13.64,31.56,29,43.5,75-17.06,76.75-36.67-12.8-32.41-13.65-48.61,29-31.55,25.58-53.72-34.11-13.65-42.63-30.7S153.16,134.66,132.69,134.66Z" style="opacity:0.18"></path><path d="M117.54,457.86H125L135.57,249.8l9.6-28.87-10.11,19,1.5-18.58,16.16-32.91L137.14,209l-1.34-49.26-2.11,30.33-7.64-4.54,6.7,10.13-1.83,35.86-6-9.55,5.21,17Z" style="fill:#263238"></path><path d="M326.64,154.25s-20.45.71-25.26,34.16,10.82,41.43-7.33,59.13-20.3,29.72-10.66,37.06,15.05,15.69,3.56,28.89-12.53,32,30.49,42.45,74.41-19.65,75.43-39.31-13.91-31.94-15.33-48.1S405.42,236,401.24,214s-34.56-12.45-43.68-29.2S347.09,153.54,326.64,154.25Z" style="fill:#92E3A9"></path><g style="opacity:0.5"><path d="M326.64,154.25s-20.45.71-25.26,34.16,10.82,41.43-7.33,59.13-20.3,29.72-10.66,37.06,15.05,15.69,3.56,28.89-12.53,32,30.49,42.45,74.41-19.65,75.43-39.31-13.91-31.94-15.33-48.1S405.42,236,401.24,214s-34.56-12.45-43.68-29.2S347.09,153.54,326.64,154.25Z" style="fill:#fff"></path></g><path d="M320.64,438.14l7.47-.26,5.42-168.66L342.11,240l-9.44,19.36.85-18.62,15-33.45-14.85,21.08-3.06-49.19-1.06,30.38-7.79-4.26,7.05,9.89-.58,35.91-6.38-9.34,5.79,16.8Z" style="fill:#263238"></path><path d="M452.6,431.49c-1.78-7.7-4.71-17.27-8.79-20.84-7.24-6.34-19,3.63-25.36-.9s7.24-48.93-14.5-51.65-29.9,42.59-39.87,47.12-13.59-11.78-27.18-12.69c-11.88-.79-34.84,31-40.43,39Z" style="fill:#92E3A9"></path><path d="M207.13,433.47c.68-5.28,1.05-15-4.27-20.3-7.55-7.55-18.87,4.71-21.7,4.71s-3.78-7.54-12.27-14.15-18.87,1.89-24.53,0,4.72-31.13-11.32-32.07-21.7,39.62-33,39.62-13.21-7.55-24.53-.94c-8.87,5.17-13.68,17.86-15.35,23.13Z" style="fill:#92E3A9"></path><path d="M207.13,433.47c.68-5.28,1.05-15-4.27-20.3-7.55-7.55-18.87,4.71-21.7,4.71s-3.78-7.54-12.27-14.15-18.87,1.89-24.53,0,4.72-31.13-11.32-32.07-21.7,39.62-33,39.62-13.21-7.55-24.53-.94c-8.87,5.17-13.68,17.86-15.35,23.13Z" style="opacity:0.25"></path><line x1="90.61" y1="432.2" x2="80.48" y2="415.75" style="fill:none;stroke:#263238;stroke-linecap:round;stroke-linejoin:round"></line><line x1="126.89" y1="430.93" x2="131.95" y2="383.26" style="fill:none;stroke:#263238;stroke-linecap:round;stroke-linejoin:round"></line><line x1="156" y1="431.78" x2="161.06" y2="413.22" style="fill:none;stroke:#263238;stroke-linecap:round;stroke-linejoin:round"></line><line x1="191.85" y1="432.62" x2="196.92" y2="419.54" style="fill:none;stroke:#263238;stroke-linecap:round;stroke-linejoin:round"></line><polyline points="91.45 416.17 86.39 425.03 74.58 420.39" style="fill:none;stroke:#263238;stroke-linecap:round;stroke-linejoin:round"></polyline><polyline points="124.36 387.06 130.26 397.61 138.28 387.9" style="fill:none;stroke:#263238;stroke-linecap:round;stroke-linejoin:round"></polyline><polyline points="120.98 403.94 128.58 413.22 136.17 407.31" style="fill:none;stroke:#263238;stroke-linecap:round;stroke-linejoin:round"></polyline><line x1="158.95" y1="421.23" x2="169.07" y2="415.33" style="fill:none;stroke:#263238;stroke-linecap:round;stroke-linejoin:round"></line><line x1="158.11" y1="424.61" x2="153.04" y2="411.53" style="fill:none;stroke:#263238;stroke-linecap:round;stroke-linejoin:round"></line><line x1="194.39" y1="425.87" x2="191.85" y2="417.43" style="fill:none;stroke:#263238;stroke-linecap:round;stroke-linejoin:round"></line><line x1="193.54" y1="427.56" x2="200.71" y2="424.61" style="fill:none;stroke:#263238;stroke-linecap:round;stroke-linejoin:round"></line><path d="M243.93,197.62a69.83,69.83,0,0,0-12.4-17.11A33.54,33.54,0,0,0,204,170.74c-20.28,2.3-25.83,28.15-31.57,43.87-13.72,37.55-30.74,93.24,20.56,109.64,22.11,7.07,52.48,0,61.37-23.7,7.69-20.5,7.57-43.07,2.91-64.25C254.51,223.91,250.42,209.8,243.93,197.62Z" style="fill:#92E3A9"></path><path d="M202,457.58h7.48L214,292.44l9.59-28.87-10.11,19L215,264l16.16-32.91L215.6,251.66l-1.34-49.26-2.12,30.32-7.64-4.53,6.7,10.13-1.83,35.86-6-9.55,5.2,17Z" style="fill:#263238"></path><path d="M212.31,354.29l.14-4.88c-1.19,0-2.88.41-2.88,2.21C209.57,353.11,211,353.89,212.31,354.29Z" style="fill:gray"></path><path d="M210.8,298.36c0,1.59,1.61,2.36,3,2.74l.14-5C212.75,296.15,210.8,296.43,210.8,298.36Z" style="fill:gray"></path><path d="M209.88,320.84c0,1.7,1.85,2.47,3.28,2.81l.14-5C212.19,318.58,209.88,318.73,209.88,320.84Z" style="fill:gray"></path><path d="M212.65,267.89c.39-1.58-1.48-1.64-2.88-1.48l-.25,5C210.56,270.79,212.23,269.55,212.65,267.89Z" style="fill:gray"></path><path d="M206.49,428.89c0,1.86,2.21,2.61,3.67,2.9l.14-5.07C209.5,426.63,206.49,426.49,206.49,428.89Z" style="fill:gray"></path><path d="M210.59,250.38l-.25,4.9a6.45,6.45,0,0,0,2.93-3.4C213.64,250.38,212,250.25,210.59,250.38Z" style="fill:gray"></path><path d="M212,236.18c0,1.67,1.8,2.44,3.22,2.79l-.14-5C213.93,234,212,234.27,212,236.18Z" style="fill:gray"></path><path d="M210,396.23c.75-3-3.14-2.92-5.65-2.57l-.34,9.09C205.81,401.72,209.2,399.41,210,396.23Z" style="fill:gray"></path><path d="M210.8,405.8s-4-.61-4,2.16c0,2,2.5,2.7,3.94,3l.13-4.74Z" style="fill:gray"></path><path d="M207.72,367.71c0,2.39,2,3.81,4.09,4.63l.24-8.69C210,363.91,207.72,364.84,207.72,367.71Z" style="fill:gray"></path><path d="M205.64,359.05l-.18,4.87a6.37,6.37,0,0,0,2.88-3.37C208.72,359,207,358.92,205.64,359.05Z" style="fill:gray"></path><path d="M207.54,308.22l-.16,4.18a5.26,5.26,0,0,0,1.88-2.65C209.55,308.59,208.61,308.26,207.54,308.22Z" style="fill:gray"></path><path d="M208.34,386.72c.48-1.91-2.38-1.6-3.68-1.36l-.2,5.3C205.06,390.36,207.79,388.91,208.34,386.72Z" style="fill:gray"></path><path d="M402.94,122.17a69.57,69.57,0,0,0-12.4-17.11A33.54,33.54,0,0,0,363,95.29c-20.27,2.29-25.83,28.15-31.57,43.86C317.68,176.71,300.66,232.4,352,248.8c22.12,7.07,52.49,0,61.37-23.7,7.69-20.51,7.57-43.07,2.92-64.25C413.52,148.46,409.43,134.35,402.94,122.17Z" style="fill:#92E3A9"></path><path d="M402.94,122.17a69.57,69.57,0,0,0-12.4-17.11A33.54,33.54,0,0,0,363,95.29c-20.27,2.29-25.83,28.15-31.57,43.86C317.68,176.71,300.66,232.4,352,248.8c22.12,7.07,52.49,0,61.37-23.7,7.69-20.51,7.57-43.07,2.92-64.25C413.52,148.46,409.43,134.35,402.94,122.17Z" style="opacity:0.18"></path><path d="M358.13,429h7.48L373,217l9.59-28.87-10.1,19L374,188.57l16.17-32.91-15.58,20.55L373.27,127l-2.12,30.32-7.63-4.53,6.69,10.13-1.82,35.86-6.05-9.55,5.2,17Z" style="fill:#263238"></path><path d="M368.49,235.93c.38-1.49-.76-2-2.12-2.06l-.23,5.47A7,7,0,0,0,368.49,235.93Z" style="fill:#5c5c5c"></path><path d="M362.86,321.15l-.25,6.57c1.41-.9,3.37-2.49,3.89-4.55S364.71,321,362.86,321.15Z" style="fill:#5c5c5c"></path><path d="M369.61,174.68l-.33,6.56c1.41-.91,3.34-2.48,3.85-4.53S371.45,174.52,369.61,174.68Z" style="fill:#5c5c5c"></path><path d="M367.74,254.71a1.68,1.68,0,0,0,0-1,11.09,11.09,0,0,0,3-5c.76-3-2-3.73-4.82-3.69l-.55,13.1A7.05,7.05,0,0,0,367.74,254.71Z" style="fill:#5c5c5c"></path><path d="M374.14,158.77l-.17-6a2.79,2.79,0,0,0-2.5,2.81C371.47,157.17,372.72,158.16,374.14,158.77Z" style="fill:#5c5c5c"></path><path d="M366.73,203.52a7.22,7.22,0,0,0,1.43-2l-.08,1.48c1.41-.86,3.67-2.53,4.22-4.76s-1.91-2.21-3.79-2l-.12,2.45-.08-.13,0,.69c-.56-.66-1.84-.75-3-.67Z" style="fill:#5c5c5c"></path><path d="M370.15,188.63c0,2,1.84,3,3.58,3.56l.17-2.12.13-4.41C372.43,185.71,370.15,186.2,370.15,188.63Z" style="fill:#5c5c5c"></path><path d="M361.27,363.75c.81-.4,4.49-2.36,5.23-5.31.64-2.58-3.21-2.16-5-1.84Z" style="fill:#5c5c5c"></path><path d="M368.16,311.14a3.1,3.1,0,0,0,1.49,2.57l.18-5.12A2.59,2.59,0,0,0,368.16,311.14Z" style="fill:#5c5c5c"></path><path d="M371.48,261.62c-1.17-.11-5.06-.24-5.06,2.94,0,1.67,1.32,2.67,2.79,3.27a2.62,2.62,0,0,0-.64,1.82c0,1.56,1.16,2.54,2.52,3.15Z" style="fill:#5c5c5c"></path><path d="M369.82,239.36a3.48,3.48,0,0,0,2.33,3.06l.21-5.88A2.8,2.8,0,0,0,369.82,239.36Z" style="fill:#5c5c5c"></path><path d="M372.53,207.15l.17-2.18c-2.52.49-5,1.85-5,5.34,0,3.23,2.65,5.13,5.51,6.25l.31-11.2Z" style="fill:#5c5c5c"></path><path d="M365.67,332.82a6,6,0,0,0,3.13,5.06l.35-10A4.9,4.9,0,0,0,365.67,332.82Z" style="fill:#5c5c5c"></path><path d="M367.54,374l.2-5.64c-1.57-1-4.47-.82-6.62-.52L360.66,380A20.13,20.13,0,0,0,367.54,374Z" style="fill:#5c5c5c"></path><path d="M366.18,412.55a2.69,2.69,0,0,0-2.17,2.73,3.31,3.31,0,0,0,2,2.88Z" style="fill:#5c5c5c"></path><path d="M364.42,387.07c0,1.57,1.18,2.55,2.55,3.16l.21-6C365.81,384.45,364.42,385.17,364.42,387.07Z" style="fill:#5c5c5c"></path><path d="M133.61,226.34S117.56,230.79,109,249.9s5.25,34.13-1.42,53.16S82,331.67,98.9,346.54,137.25,338,148.59,340s12.23,22.57,43.07,13.72,21-35.27,9.18-47.25-2.64-31.74-10.67-58.25C184,227.88,155.73,217.87,133.61,226.34Z" style="fill:#92E3A9"></path><path d="M133.61,226.34S117.56,230.79,109,249.9s5.25,34.13-1.42,53.16S82,331.67,98.9,346.54,137.25,338,148.59,340s12.23,22.57,43.07,13.72,21-35.27,9.18-47.25-2.64-31.74-10.67-58.25C184,227.88,155.73,217.87,133.61,226.34Z" style="fill:#fff;opacity:0.5"></path><polygon points="146.16 470.03 151.4 318.63 115.31 293.35 151.8 313.62 152.09 291.74 144.04 278.98 153.15 287.32 155.63 258.48 157.54 302.12 183.16 287.88 157.87 309.6 157.18 336.5 178.07 328.71 156.83 342.76 153.64 469.7 146.16 470.03" style="fill:#263238"></polygon><path d="M154,333.81a4.91,4.91,0,0,0,3.26.5l.12-4.57C156,330.47,152,332.81,154,333.81Z" style="fill:gray"></path><path d="M148.18,411.64l-.13,3.76,0,.81a19.55,19.55,0,0,0,3.57-2.64C152.72,412.44,150.32,411.9,148.18,411.64Z" style="fill:gray"></path><path d="M149.59,370.75l-.14,4.22a18.27,18.27,0,0,0,3.09-2.35C153.59,371.57,151.59,371,149.59,370.75Z" style="fill:gray"></path><path d="M148.89,391.26a19.33,19.33,0,0,0,3.65-2.69c1.15-1.15-1.34-1.69-3.49-1.94l-.07,1.93Z" style="fill:gray"></path><path d="M151.94,303l0,2a16.84,16.84,0,0,0,2.76-2.14c1-1-.79-1.55-2.71-1.84Z" style="fill:gray"></path><path d="M151.14,326.2a30.67,30.67,0,0,0,5.73-4.24c1.82-1.81-2.07-2.67-5.48-3.07Z" style="fill:gray"></path><path d="M153.73,381.19a5.26,5.26,0,0,0,2.12.58l.1-4C154.3,378.81,152.16,380.41,153.73,381.19Z" style="fill:gray"></path><path d="M152.91,365.94a12.85,12.85,0,0,0,3.31,1.15l.2-8C153,361.4,149.78,364.38,152.91,365.94Z" style="fill:gray"></path><path d="M152.27,398.41a7.07,7.07,0,0,0,3.14.81l.14-5.6C153.27,395,150.06,397.3,152.27,398.41Z" style="fill:gray"></path><path d="M155.1,411.5l.11-4.48c-1.52.84-5,3-3.15,3.93A5,5,0,0,0,155.1,411.5Z" style="fill:gray"></path><path d="M150.28,351l-.15,4.42a18.31,18.31,0,0,0,3.36-2.52C154.59,351.76,152.36,351.21,150.28,351Z" style="fill:gray"></path><path d="M243.19,457.86a6.65,6.65,0,0,0-3-4.31c-3-1.62-3,0-6.47-1.08-2.32-.71-1.86-6-2.05-7.74-.58-5.47-3.61-10.2-9.2-11.62a16.93,16.93,0,0,0-16,4c-6.74,6.47-5.93,12.13-10.24,12.39s-6.74-5.12-14.29-1.88c-4.63,2-7,6.81-8.19,10.24Z" style="fill:#92E3A9"></path><path d="M243.19,457.86a6.65,6.65,0,0,0-3-4.31c-3-1.62-3,0-6.47-1.08-2.32-.71-1.86-6-2.05-7.74-.58-5.47-3.61-10.2-9.2-11.62a16.93,16.93,0,0,0-16,4c-6.74,6.47-5.93,12.13-10.24,12.39s-6.74-5.12-14.29-1.88c-4.63,2-7,6.81-8.19,10.24Z" style="fill:#fff;opacity:0.5"></path><line x1="189.15" y1="457.76" x2="185.87" y2="454.78" style="fill:none;stroke:#263238;stroke-linecap:round;stroke-linejoin:round"></line><line x1="209.14" y1="457.91" x2="217.95" y2="440.01" style="fill:none;stroke:#263238;stroke-linecap:round;stroke-linejoin:round"></line><polyline points="213.47 441.35 214.51 447.17 221.53 443.29" style="fill:none;stroke:#263238;stroke-linecap:round;stroke-linejoin:round"></polyline><polyline points="207.8 447.32 211.38 453.88 218.39 451.64" style="fill:none;stroke:#263238;stroke-linecap:round;stroke-linejoin:round"></polyline><path d="M187,470.61c-.75-2.94-2.52-7.31-6.65-9.56-6.58-3.59-6.58,0-14.35-2.39-5.15-1.59-4.13-13.19-4.55-17.16-1.29-12.15-8-22.65-20.42-25.78-12.56-3.18-26-.2-35.42,8.86-14.94,14.35-13.15,26.9-22.72,27.5S68,440.72,51.23,447.89C41,452.3,35.65,463,33.07,470.61Z" style="fill:#92E3A9"></path><line x1="67.16" y1="470.39" x2="59.88" y2="463.78" style="fill:none;stroke:#263238;stroke-linecap:round;stroke-linejoin:round"></line><line x1="111.5" y1="470.73" x2="131.03" y2="431.01" style="fill:none;stroke:#263238;stroke-linecap:round;stroke-linejoin:round"></line><line x1="162.47" y1="469.73" x2="168.75" y2="465.76" style="fill:none;stroke:#263238;stroke-linecap:round;stroke-linejoin:round"></line><polyline points="121.1 433.99 123.42 446.9 138.97 438.29" style="fill:none;stroke:#263238;stroke-linecap:round;stroke-linejoin:round"></polyline><polyline points="108.52 447.23 116.47 461.79 132.02 456.83" style="fill:none;stroke:#263238;stroke-linecap:round;stroke-linejoin:round"></polyline><polyline points="66.83 462.12 65.5 469.4 58.22 468.08" style="fill:none;stroke:#263238;stroke-linecap:round;stroke-linejoin:round"></polyline><line x1="164.45" y1="468.08" x2="163.46" y2="464.44" style="fill:none;stroke:#263238;stroke-linecap:round;stroke-linejoin:round"></line><circle cx="121.05" cy="433.53" r="1.07" style="fill:#263238"></circle><path d="M132.09,431A1.07,1.07,0,1,1,131,430,1.06,1.06,0,0,1,132.09,431Z" style="fill:#263238"></path><circle cx="139.93" cy="437.83" r="1.07" style="fill:#263238"></circle><path d="M133.67,456.64a1.07,1.07,0,1,1-1.06-1.06A1.07,1.07,0,0,1,133.67,456.64Z" style="fill:#263238"></path><circle cx="108.42" cy="447.04" r="1.07" style="fill:#263238"></circle><circle cx="163.46" cy="464.44" r="1.07" style="fill:#263238"></circle><path d="M169.77,465.53a1.07,1.07,0,1,1-1.07-1.06A1.07,1.07,0,0,1,169.77,465.53Z" style="fill:#263238"></path><circle cx="66.83" cy="462.12" r="1.07" style="fill:#263238"></circle><path d="M60.6,463.22a1.07,1.07,0,1,1-1.07-1.07A1.07,1.07,0,0,1,60.6,463.22Z" style="fill:#263238"></path><circle cx="57.75" cy="468.02" r="1.07" style="fill:#263238"></circle><path d="M279.55,428.32s-47,2.73-42.24,5.45,42.92,6.13,36.79,13-81.76,25.2-81.76,25.2" style="fill:none;stroke:#263238;stroke-linecap:round;stroke-linejoin:round"></path><path d="M305.44,428.32s-17.72,2.73-15,4.77,126,4.77,118.54,40.2" style="fill:none;stroke:#263238;stroke-linecap:round;stroke-linejoin:round"></path><path d="M388.52,347.85s-16.21,1.71-39.23-20.46,22.17-100.63,40.08-117.68S444,301.8,430.3,322.27,402.16,347,388.52,347.85Z" style="fill:#92E3A9"></path><polyline points="381.69 437.39 384.25 323.12 373.17 311.19 385.11 318.01 385.11 297.54 369.76 279.63 384.25 290.72 382.55 276.22 386.81 283.04 389.37 242.11 391.07 304.36 419.22 289.01 391.07 312.89 391.07 323.98 391.07 440.8" style="fill:#263238"></polyline><path d="M387.94,388c.72-1.8-3.87-2-5.09-2.07l-.12,5.46C384.33,390.75,387.34,389.47,387.94,388Z" style="fill:gray"></path><path d="M391.07,341.83c-2.33.58-7.1,2-5.71,3.36,1.1,1.09,3.76,1.53,5.71,1.7Z" style="fill:gray"></path><path d="M388.28,357.22c.73-1.82-4.74-1.82-4.74-1.82v.09l-.11,4.8C384.72,359.83,387.71,358.64,388.28,357.22Z" style="fill:gray"></path><path d="M387.92,333.53c.54-1.36-2.35-1.71-3.86-1.8l-.1,4.53C385.41,335.67,387.46,334.67,387.92,333.53Z" style="fill:gray"></path><path d="M382.55,412.86l-.36,2.53-.07,3.14c1.25-.42,5.13-1.86,5.82-3.6C388.77,412.86,382.55,412.86,382.55,412.86Z" style="fill:gray"></path><path d="M384.62,374.27c1.24,1.24,4.23,1.73,6.45,1.94v-5.75C388.4,371.13,383.05,372.7,384.62,374.27Z" style="fill:gray"></path><path d="M385,321.5c1.16,1.16,4.1,1.58,6.07,1.73v-5.18C388.92,318.56,383.53,320,385,321.5Z" style="fill:gray"></path><path d="M390.65,289c-2.39.7-5.32,1.82-4.19,3,.85.85,2.64,1.3,4.32,1.55Z" style="fill:gray"></path><path d="M391.07,397.43c-2.67.67-8,2.24-6.45,3.81,1.24,1.24,4.23,1.74,6.45,1.94Z" style="fill:gray"></path><path d="M385.11,302.19v4.67c1.45-.56,3.77-1.63,4.26-2.86C390,302.51,386.41,302.24,385.11,302.19Z" style="fill:gray"></path><path d="M444,438.64c.74-6.75-4.75-14-11.7-14.35-6.24-.3-13.1,3.89-18.3.43-4.25-2.83-4.34-8.87-4.82-14s-1.88-10.21-5.2-14-8.9-6-13.66-4.26c-9.59,3.53-10.18,19.26-20,22.16-6.78,2-13.85-3.63-20.81-2.38-8.52,1.52-12.37,10.95-18.91,15.56-.68.48-3.52,2.54-6.78,4.92-2.73,2-5.75,4.21-8,5.92Z" style="fill:#92E3A9"></path><path d="M444,438.64c.74-6.75-4.75-14-11.7-14.35-6.24-.3-13.1,3.89-18.3.43-4.25-2.83-4.34-8.87-4.82-14s-1.88-10.21-5.2-14-8.9-6-13.66-4.26c-9.59,3.53-10.18,19.26-20,22.16-6.78,2-13.85-3.63-20.81-2.38-8.52,1.52-12.37,10.95-18.91,15.56-.68.48-3.52,2.54-6.78,4.92-2.73,2-5.75,4.21-8,5.92Z" style="fill:#fff;opacity:0.5"></path><line x1="364.47" y1="438.08" x2="359.09" y2="422.36" style="fill:none;stroke:#263238;stroke-linecap:round;stroke-linejoin:round"></line><line x1="383.5" y1="438.5" x2="394.67" y2="408.3" style="fill:none;stroke:#263238;stroke-linecap:round;stroke-linejoin:round"></line><line x1="424.04" y1="438.5" x2="430.66" y2="432.29" style="fill:none;stroke:#263238;stroke-linecap:round;stroke-linejoin:round"></line><line x1="362.99" y1="434.36" x2="366.54" y2="424.85" style="fill:none;stroke:#263238;stroke-linecap:round;stroke-linejoin:round"></line><line x1="362.3" y1="432.04" x2="349.99" y2="428.98" style="fill:none;stroke:#263238;stroke-linecap:round;stroke-linejoin:round"></line><line x1="391.36" y1="417.4" x2="388.05" y2="412.02" style="fill:none;stroke:#263238;stroke-linecap:round;stroke-linejoin:round"></line><line x1="388.05" y1="425.67" x2="400.04" y2="419.06" style="fill:none;stroke:#263238;stroke-linecap:round;stroke-linejoin:round"></line><line x1="384.47" y1="436.17" x2="395.49" y2="432.29" style="fill:none;stroke:#263238;stroke-linecap:round;stroke-linejoin:round"></line><line x1="385.98" y1="431.88" x2="378.95" y2="419.47" style="fill:none;stroke:#263238;stroke-linecap:round;stroke-linejoin:round"></line><path d="M395.73,408.3a1.07,1.07,0,1,1-1.06-1.07A1.06,1.06,0,0,1,395.73,408.3Z" style="fill:#263238"></path><path d="M389,411.93a1.07,1.07,0,1,1-1.07-1.07A1.06,1.06,0,0,1,389,411.93Z" style="fill:#263238"></path><circle cx="400.04" cy="419.06" r="1.07" style="fill:#263238"></circle><circle cx="378.95" cy="419.47" r="1.07" style="fill:#263238"></circle><circle cx="396.05" cy="432.13" r="1.07" style="fill:#263238"></circle><circle cx="430.24" cy="432.55" r="1.07" style="fill:#263238"></circle><path d="M360.16,422.36a1.07,1.07,0,1,1-1.07-1.06A1.07,1.07,0,0,1,360.16,422.36Z" style="fill:#263238"></path><circle cx="366.35" cy="424.88" r="1.07" style="fill:#263238"></circle><circle cx="349.99" cy="428.98" r="1.07" style="fill:#263238"></circle><path d="M474.76,453.54a8.1,8.1,0,0,0-3.65-5.26c-3.62-2-3.62,0-7.89-1.31-2.83-.87-2.27-7.25-2.5-9.44-.71-6.67-4.41-12.44-11.23-14.17A20.64,20.64,0,0,0,430,428.23c-8.22,7.89-7.23,14.79-12.49,15.12s-8.22-6.24-17.42-2.3c-5.65,2.42-8.57,8.3-10,12.49Z" style="fill:#92E3A9"></path><line x1="408.86" y1="453.42" x2="404.86" y2="449.78" style="fill:none;stroke:#263238;stroke-linecap:round;stroke-linejoin:round"></line><line x1="433.24" y1="453.6" x2="443.98" y2="431.77" style="fill:none;stroke:#263238;stroke-linecap:round;stroke-linejoin:round"></line><polyline points="438.52 433.41 439.79 440.5 448.34 435.77" style="fill:none;stroke:#263238;stroke-linecap:round;stroke-linejoin:round"></polyline><polyline points="431.61 440.69 435.97 448.69 444.52 445.96" style="fill:none;stroke:#263238;stroke-linecap:round;stroke-linejoin:round"></polyline></g></svg>