<svg width="420" height="400" viewBox="0 0 420 400" fill="none" xmlns="http://www.w3.org/2000/svg">
<g clip-path="url(#clip0)">
<path d="M170.923 382.525C168.546 382.525 166.346 381.998 164.586 380.944L63.1085 322.547C60.8202 321.229 59.5 319.122 59.5 316.926C59.5 314.643 60.8202 312.623 63.1085 311.306L241.772 208.386C243.532 207.333 245.82 206.806 248.109 206.806C250.397 206.806 252.685 207.333 254.446 208.386L355.923 266.872C358.211 268.189 359.531 270.296 359.531 272.492C359.531 274.775 358.211 276.795 355.923 278.112L177.259 381.032C175.499 381.998 173.299 382.525 170.923 382.525Z" fill="#E0E0E0"/>
<path d="M351.788 260.111L341.93 254.842C341.93 254.842 341.138 239.738 342.37 227.795C344.043 210.934 356.54 191.439 369.566 196.181C382.592 200.923 363.581 218.047 359.357 232.361C355.132 246.587 351.788 260.111 351.788 260.111Z" fill="#02BBA9"/>
<path opacity="0.1" d="M351.788 260.111L341.93 254.842C341.93 254.842 341.138 239.738 342.37 227.795C344.043 210.934 356.54 191.439 369.566 196.181C382.592 200.923 363.581 218.047 359.357 232.361C355.132 246.587 351.788 260.111 351.788 260.111Z" fill="#F5F5FA"/>
<path d="M346.947 258.353C347.211 258.353 347.387 258.178 347.387 257.914C346.155 220.505 364.725 201.712 364.989 201.536C365.165 201.361 365.165 201.097 364.989 200.922C364.813 200.746 364.549 200.746 364.373 200.922C364.197 201.097 345.275 220.153 346.507 257.914C346.507 258.178 346.771 258.353 346.947 258.353Z" fill="white"/>
<path d="M356.889 263.097L351.785 260.111C351.785 260.111 350.201 248.256 354.953 235.171C359.706 222.262 372.027 215.237 377.748 217.169C384.701 219.54 384.701 226.126 382.237 230.517C379.156 235.61 360.674 248.519 356.889 263.097Z" fill="#02BBA9"/>
<path d="M354.159 261.956C354.423 261.956 354.599 261.781 354.599 261.517C354.511 237.895 376.778 221.912 376.954 221.737C377.13 221.561 377.218 221.298 377.042 221.122C376.866 220.946 376.602 220.859 376.426 221.034C376.162 221.21 353.631 237.456 353.719 261.517C353.719 261.781 353.895 261.956 354.159 261.956Z" fill="white"/>
<path d="M55.1053 270.299V249.75C55.1053 249.75 54.0492 238.158 45.8641 229.289C37.679 220.508 30.3741 223.493 27.9978 227.621C25.6215 231.836 30.9902 239.739 34.5106 244.218C38.6472 249.574 55.1053 274.514 55.1053 285.755V270.299Z" fill="#02BBA9"/>
<g opacity="0.2">
<path opacity="0.2" d="M55.1053 270.299V249.75C55.1053 249.75 54.0492 238.158 45.8641 229.289C37.679 220.508 30.3741 223.493 27.9978 227.621C25.6215 231.836 30.9902 239.739 34.5106 244.218C38.6472 249.574 55.1053 274.514 55.1053 285.755V270.299Z" fill="#F5F5FA"/>
</g>
<path d="M55.1006 267.05C54.8365 267.05 54.6605 266.875 54.5725 266.611C50.876 244.131 33.7138 228.763 33.5377 228.587C33.3617 228.412 33.2737 228.06 33.5377 227.885C33.7138 227.709 34.0658 227.621 34.2418 227.885C34.4179 228.06 51.8441 243.691 55.5406 266.436C55.6286 266.787 55.4526 267.05 55.1006 267.05C55.1886 267.05 55.1006 267.05 55.1006 267.05Z" fill="white"/>
<path d="M55.1896 273.023C55.1896 273.023 55.8937 271.003 52.8133 270.476C49.8209 269.949 48.6767 267.491 48.3247 263.275C48.0606 259.06 46.7405 256.075 42.956 255.46C39.1715 254.845 36.1791 256.777 33.7148 254.845C31.2504 253.001 24.9136 248.435 19.6329 250.454C14.3522 252.562 16.1124 257.041 18.8408 259.938C21.5692 262.836 22.3613 263.802 20.249 268.632C18.1367 273.374 19.7209 277.853 24.5616 278.907C29.4022 279.96 32.1305 279.433 32.2186 284.79C32.3066 290.147 33.0107 292.518 35.651 294.538C38.2914 296.645 46.6525 295.679 50.1729 296.47C53.6934 297.26 55.1016 300.421 55.1016 300.421V273.023H55.1896Z" fill="#02BBA9"/>
<path d="M55.1923 294.977C55.0163 294.977 54.8403 294.889 54.8403 294.713C45.9511 268.456 25.9725 257.919 25.7965 257.831C25.6205 257.743 25.5325 257.479 25.6205 257.304C25.7085 257.128 25.9725 257.04 26.1485 257.128C26.3246 257.216 46.6552 267.93 55.6324 294.538C55.7204 294.713 55.6324 294.977 55.3684 295.065C55.2804 294.977 55.2804 294.977 55.1923 294.977Z" fill="white"/>
<path d="M42.5176 272.147H42.4296C36.6208 270.83 27.3796 271.532 27.2916 271.532C27.0276 271.532 26.8516 271.357 26.8516 271.181C26.8516 270.917 27.0276 270.742 27.2036 270.742C27.5557 270.742 36.7089 270.039 42.6056 271.357C42.8697 271.444 42.9577 271.62 42.9577 271.883C42.8697 271.971 42.6936 272.147 42.5176 272.147Z" fill="white"/>
<path d="M47.1796 284.7C44.5392 284.7 41.7228 284.524 41.5468 284.524C41.2828 284.524 41.1068 284.348 41.1948 284.085C41.1948 283.822 41.3708 283.646 41.6348 283.734C41.7228 283.734 48.1477 284.173 50.7 283.734C50.9641 283.734 51.1401 283.822 51.1401 284.085C51.1401 284.348 51.0521 284.524 50.788 284.524C49.9079 284.612 48.5877 284.7 47.1796 284.7Z" fill="white"/>
<path d="M39.7877 268.983C39.5237 268.983 39.3477 268.807 39.3477 268.544C39.6117 263.89 41.1079 259.938 41.1959 259.762C41.2839 259.587 41.548 259.411 41.724 259.499C41.9 259.587 42.076 259.85 41.988 260.026C41.988 260.026 40.4038 264.065 40.2278 268.544C40.2278 268.807 40.0518 268.983 39.7877 268.983Z" fill="white"/>
<path d="M60.1133 309.201C60.1133 312.011 62.2256 315.436 64.7779 316.929L166.255 375.414C168.808 376.907 173.032 376.907 175.584 375.414L354.248 272.494C356.8 271.001 358.912 267.576 358.912 264.766C358.912 261.956 356.8 258.531 354.248 257.038L252.771 198.553C250.218 197.06 245.994 197.06 243.441 198.553L64.7779 301.473C62.2256 302.966 60.1133 306.391 60.1133 309.201Z" fill="#02BBA9"/>
<path opacity="0.5" d="M358.915 264.676C358.915 267.486 356.802 270.91 354.25 272.403L175.586 375.323C174.266 376.026 172.594 376.465 170.922 376.465V366.366C172.594 366.366 174.266 366.015 175.586 365.224L354.25 262.305C356.538 260.987 356.802 258.968 355.13 257.562C357.242 259.231 358.915 262.217 358.915 264.676Z" fill="#F5F5FA"/>
<path opacity="0.3" d="M64.7814 306.829L166.259 365.315C168.811 366.807 173.036 366.807 175.588 365.315L354.251 262.395C356.804 260.902 356.804 258.531 354.251 257.038L252.774 198.553C250.222 197.06 245.997 197.06 243.445 198.553L64.7814 301.473C62.2291 302.965 62.2291 305.336 64.7814 306.829Z" fill="#F5F5FA"/>
<path opacity="0.7" d="M170.92 366.455V376.554C169.248 376.554 167.575 376.203 166.255 375.413L64.7779 316.927C62.2256 315.435 60.1133 312.01 60.1133 309.2C60.1133 306.565 61.9615 303.404 64.3378 301.735C62.2256 303.228 62.4016 305.424 64.7779 306.829L166.255 365.314C167.575 366.016 169.248 366.455 170.92 366.455Z" fill="#F5F5FA"/>
<path d="M55.8043 301.648C53.428 300.243 53.516 297.872 53.516 294.974V155.172C53.516 152.186 55.6283 148.586 58.1807 147.093L236.844 44.1729C239.396 42.68 243.445 42.5922 245.909 43.9972C248.286 45.4023 248.198 47.7733 248.198 50.6712V190.474C248.198 193.459 246.085 197.06 243.533 198.553L64.8695 301.473C62.2292 302.965 58.1807 303.053 55.8043 301.648Z" fill="#02BBA9"/>
<path opacity="0.3" d="M248.109 50.5833C248.109 47.5975 245.997 46.4559 243.445 47.861L64.7812 150.781C63.4611 151.483 62.3169 152.801 61.5248 154.293L54.8359 150.43C55.7161 148.937 56.8602 147.707 58.0924 146.917L236.756 43.9971C239.308 42.5042 243.357 42.4164 245.821 43.8215C248.285 45.3143 248.109 47.6853 248.109 50.5833Z" fill="#F5F5FA"/>
<path opacity="0.5" d="M60.1133 158.948V298.75C60.1133 301.736 62.2256 302.877 64.7779 301.472L243.441 198.552C245.994 197.06 248.106 193.459 248.106 190.473V50.6709C248.106 47.6852 245.994 46.5436 243.441 47.9486L64.7779 150.868C62.2256 152.361 60.1133 155.962 60.1133 158.948Z" fill="#F5F5FA"/>
<path opacity="0.7" d="M64.2535 301.738C61.7011 302.967 58.0046 302.88 55.8043 301.65C53.428 300.245 53.516 297.874 53.516 294.976V155.086C53.516 153.593 54.0441 151.925 54.9242 150.52L61.6131 154.383C60.733 155.876 60.2049 157.457 60.2049 158.95V298.84C60.1169 301.562 61.9652 302.792 64.2535 301.738Z" fill="#F5F5FA"/>
<path d="M67.332 156.226L239.571 56.9943C241.155 56.1161 242.387 56.8186 242.387 58.5749V180.639C242.387 182.395 241.155 184.59 239.571 185.468L67.332 284.7C65.7478 285.578 64.5156 284.876 64.5156 283.119V161.056C64.5156 159.299 65.7478 157.104 67.332 156.226Z" fill="#FAFAFA"/>
<path d="M103.332 186.962L204.457 128.652C207.449 126.896 209.914 128.125 209.914 131.375C209.914 134.624 207.449 138.663 204.457 140.332L103.332 198.641C100.339 200.398 97.875 199.168 97.875 195.919C97.963 192.67 100.339 188.63 103.332 186.962Z" fill="#455A64"/>
<path d="M208.241 131.373C208.241 134.008 206.129 137.52 203.665 138.925L182.982 150.868L102.451 197.235C101.659 197.674 101.043 197.762 100.779 197.762C99.9869 197.762 99.5469 197.147 99.5469 195.918C99.5469 193.283 101.659 189.771 104.123 188.366L182.982 142.965L205.337 130.144C206.129 129.705 206.745 129.617 207.009 129.617C207.889 129.529 208.241 130.144 208.241 131.373Z" fill="#02BBA9"/>
<path d="M208.241 131.373C208.241 134.008 206.129 137.52 203.665 138.925L182.982 150.868L102.451 197.235C101.659 197.674 101.043 197.762 100.779 197.762C99.9869 197.762 99.5469 197.147 99.5469 195.918C99.5469 193.283 101.659 189.771 104.123 188.366L182.982 142.965L205.337 130.144C206.129 129.705 206.745 129.617 207.009 129.617C207.889 129.529 208.241 130.144 208.241 131.373Z" fill="#02BBA9"/>
<path d="M208.24 131.373C208.24 134.008 206.127 137.52 203.663 138.925L182.98 150.868V142.965L205.335 130.144C206.128 129.705 206.744 129.617 207.008 129.617C207.888 129.529 208.24 130.144 208.24 131.373Z" fill="#263238"/>
<path opacity="0.6" d="M127.36 175.019L104.213 188.367C101.749 189.772 99.6367 193.285 99.6367 195.919C99.6367 197.148 100.077 197.763 100.869 197.763C101.221 197.763 101.749 197.675 102.541 197.236L127.36 182.922V175.019Z" fill="white"/>
<path opacity="0.4" d="M127.359 182.923L155.347 166.765V158.949L127.359 175.02V182.923Z" fill="white"/>
<path d="M134.928 201.452C135.016 201.364 135.104 201.364 135.192 201.452C135.28 201.54 135.28 201.628 135.28 201.715V203.033C135.28 203.208 135.28 203.296 135.192 203.472C135.104 203.647 135.016 203.735 134.928 203.735L129.735 206.721C129.647 206.809 129.559 206.809 129.471 206.721C129.383 206.633 129.383 206.545 129.383 206.458V194.778C129.383 194.602 129.383 194.515 129.471 194.339C129.559 194.163 129.647 194.076 129.735 194.076L130.703 193.549C130.791 193.461 130.879 193.461 130.967 193.549C131.055 193.636 131.055 193.724 131.055 193.812V203.735L134.928 201.452Z" fill="#455A64"/>
<path d="M139.502 191.44C139.942 191.176 140.294 191.088 140.646 191.088C140.998 191.088 141.262 191.176 141.526 191.44C141.79 191.615 141.966 191.966 142.142 192.318C142.318 192.669 142.406 193.196 142.406 193.723C142.406 193.811 142.406 193.986 142.406 194.162C142.406 194.337 142.406 194.513 142.406 194.689C142.406 194.864 142.406 195.04 142.406 195.216C142.406 195.391 142.406 195.479 142.406 195.655C142.406 196.269 142.318 196.796 142.142 197.411C141.966 197.938 141.79 198.553 141.526 198.992C141.262 199.519 140.998 199.958 140.646 200.397C140.294 200.836 139.942 201.099 139.502 201.363C139.062 201.626 138.71 201.714 138.358 201.714C138.006 201.714 137.742 201.626 137.478 201.363C137.214 201.187 137.038 200.836 136.862 200.485C136.686 200.045 136.598 199.606 136.598 199.079C136.598 198.992 136.598 198.816 136.598 198.64C136.598 198.465 136.598 198.289 136.598 198.113C136.598 197.938 136.598 197.762 136.598 197.587C136.598 197.411 136.598 197.235 136.598 197.148C136.598 196.621 136.686 196.006 136.862 195.479C137.038 194.864 137.214 194.337 137.478 193.898C137.742 193.371 138.006 192.932 138.358 192.493C138.71 192.054 139.062 191.703 139.502 191.44ZM140.998 194.777C140.998 194.425 140.91 194.162 140.822 193.898C140.734 193.723 140.646 193.547 140.47 193.547C140.294 193.459 140.206 193.459 140.03 193.459C139.854 193.459 139.678 193.547 139.59 193.635C139.414 193.723 139.238 193.811 139.15 193.986C138.974 194.162 138.886 194.337 138.71 194.513C138.534 194.777 138.446 195.04 138.358 195.303C138.27 195.567 138.182 195.918 138.182 196.357C138.182 196.445 138.182 196.621 138.182 196.708C138.182 196.884 138.182 196.972 138.182 197.148C138.182 197.323 138.182 197.499 138.182 197.587C138.182 197.762 138.182 197.85 138.182 197.938C138.182 198.289 138.27 198.553 138.358 198.816C138.446 198.992 138.534 199.167 138.71 199.167C138.886 199.255 138.974 199.255 139.15 199.255C139.326 199.255 139.502 199.167 139.59 199.079C139.766 198.992 139.942 198.904 140.03 198.728C140.206 198.553 140.294 198.377 140.47 198.201C140.646 197.938 140.734 197.762 140.822 197.411C140.91 197.148 140.998 196.796 140.998 196.357C140.998 196.269 140.998 196.182 140.998 196.006C140.998 195.83 140.998 195.742 140.998 195.567C140.998 195.391 140.998 195.216 140.998 195.128C140.998 194.952 140.998 194.864 140.998 194.777Z" fill="#455A64"/>
<path d="M144.434 191.177C144.434 190.914 144.522 190.563 144.61 190.211C144.698 189.86 144.874 189.509 145.138 189.158C145.314 188.806 145.578 188.455 145.931 188.104C146.195 187.753 146.547 187.489 146.987 187.226C147.427 186.962 147.779 186.874 148.043 186.874C148.395 186.874 148.659 186.962 148.835 187.138C149.099 187.313 149.275 187.577 149.363 188.016C149.451 188.455 149.539 188.894 149.539 189.509V194.866C149.539 195.041 149.539 195.129 149.451 195.305C149.363 195.48 149.275 195.568 149.187 195.568L148.307 196.095C148.219 196.183 148.131 196.183 148.043 196.095C147.955 196.007 147.955 195.919 147.955 195.832V195.217C147.779 195.656 147.515 196.095 147.251 196.534C146.899 196.973 146.547 197.324 146.107 197.588C145.754 197.764 145.49 197.851 145.226 197.939C144.962 197.939 144.698 197.851 144.522 197.764C144.346 197.588 144.17 197.412 144.082 197.149C143.994 196.885 143.906 196.534 143.906 196.095C143.906 195.305 144.082 194.514 144.522 193.812C144.874 193.109 145.402 192.495 146.107 191.968L148.043 190.387C148.043 189.86 147.955 189.597 147.691 189.509C147.515 189.421 147.251 189.509 146.899 189.684C146.723 189.772 146.547 189.948 146.459 190.036C146.371 190.211 146.283 190.387 146.107 190.563C146.019 190.738 145.931 190.826 145.931 190.914C145.843 191.002 145.843 191.002 145.754 191.09L144.698 191.704C144.61 191.792 144.522 191.792 144.522 191.704C144.434 191.353 144.434 191.265 144.434 191.177ZM146.371 195.129C146.635 194.953 146.899 194.778 147.075 194.514C147.251 194.251 147.427 193.987 147.603 193.724C147.779 193.461 147.867 193.197 147.955 192.846C148.043 192.582 148.043 192.319 148.043 192.056V191.88L146.459 193.197C146.107 193.461 145.931 193.724 145.754 193.987C145.578 194.251 145.578 194.514 145.578 194.778C145.578 195.041 145.666 195.129 145.842 195.217C146.019 195.305 146.195 195.305 146.371 195.129Z" fill="#455A64"/>
<path d="M154.115 183.098C154.379 182.922 154.555 182.835 154.731 182.835C154.907 182.835 155.083 182.747 155.259 182.835C155.435 182.835 155.523 182.922 155.611 183.01C155.699 183.098 155.787 183.186 155.875 183.186V179.322C155.875 179.146 155.875 179.059 155.963 178.883C156.051 178.707 156.139 178.619 156.227 178.619L157.107 178.093C157.195 178.005 157.283 178.005 157.371 178.093C157.459 178.18 157.459 178.268 157.459 178.356V190.211C157.459 190.387 157.459 190.475 157.371 190.65C157.283 190.826 157.195 190.914 157.107 190.914L156.227 191.441C156.139 191.528 156.051 191.528 155.963 191.441C155.875 191.353 155.875 191.265 155.875 191.177V190.738C155.787 190.914 155.699 191.089 155.611 191.265C155.523 191.441 155.347 191.616 155.259 191.792C155.083 191.967 154.907 192.143 154.731 192.319C154.555 192.494 154.291 192.67 154.115 192.846C153.763 193.109 153.323 193.197 153.059 193.109C152.707 193.021 152.443 192.933 152.267 192.67C152.003 192.407 151.827 192.055 151.739 191.616C151.651 191.177 151.562 190.65 151.562 190.123C151.562 189.948 151.562 189.772 151.562 189.509C151.562 189.245 151.562 189.07 151.562 188.894C151.562 188.367 151.651 187.752 151.739 187.138C151.827 186.523 152.003 185.996 152.267 185.469C152.531 184.942 152.795 184.503 153.059 184.064C153.411 183.625 153.763 183.274 154.115 183.098ZM153.059 188.104C153.059 188.455 153.059 188.806 153.059 189.157C153.147 189.948 153.235 190.387 153.499 190.562C153.763 190.738 154.115 190.738 154.467 190.475C154.819 190.211 155.171 189.86 155.435 189.421C155.699 188.894 155.875 188.367 155.875 187.664C155.875 187.489 155.875 187.225 155.875 186.962C155.875 186.699 155.875 186.435 155.875 186.259C155.875 185.645 155.699 185.206 155.435 185.03C155.171 184.854 154.819 184.854 154.467 185.03C154.115 185.293 153.763 185.645 153.499 186.084C153.235 186.611 153.059 187.313 153.059 188.104Z" fill="#455A64"/>
<path d="M160.978 175.897C161.066 175.809 161.154 175.809 161.242 175.897C161.331 175.985 161.331 176.073 161.331 176.16V177.566C161.331 177.741 161.331 177.829 161.242 178.005C161.154 178.18 161.066 178.268 160.978 178.268L159.922 178.883C159.834 178.971 159.746 178.971 159.658 178.883C159.57 178.795 159.57 178.707 159.57 178.619V177.214C159.57 177.039 159.57 176.951 159.658 176.775C159.746 176.6 159.834 176.512 159.922 176.512L160.978 175.897ZM161.154 188.103C161.154 188.279 161.154 188.367 161.066 188.542C160.978 188.718 160.89 188.806 160.802 188.806L159.922 189.333C159.834 189.421 159.746 189.421 159.658 189.333C159.57 189.245 159.57 189.157 159.57 189.069V180.639C159.57 180.463 159.57 180.376 159.658 180.2C159.746 180.024 159.834 179.937 159.922 179.937L160.802 179.41C160.89 179.322 160.978 179.322 161.066 179.41C161.154 179.497 161.154 179.585 161.154 179.673V188.103Z" fill="#455A64"/>
<path d="M169.162 183.537C169.162 183.713 169.162 183.801 169.074 183.977C168.986 184.152 168.898 184.24 168.81 184.24L167.93 184.767C167.842 184.855 167.754 184.855 167.666 184.767C167.578 184.679 167.578 184.591 167.578 184.503V179.937C167.578 179.235 167.49 178.708 167.226 178.356C166.962 178.005 166.698 178.005 166.17 178.269C165.73 178.532 165.466 178.883 165.202 179.498C164.938 180.113 164.85 180.727 164.85 181.43V185.996C164.85 186.172 164.85 186.26 164.762 186.435C164.674 186.611 164.586 186.699 164.498 186.699L163.618 187.226C163.53 187.314 163.442 187.314 163.354 187.226C163.266 187.138 163.266 187.05 163.266 186.962V178.532C163.266 178.356 163.266 178.269 163.354 178.093C163.442 177.917 163.53 177.829 163.618 177.829L164.498 177.303C164.586 177.215 164.674 177.215 164.762 177.303C164.85 177.39 164.85 177.478 164.85 177.566V178.005C165.026 177.566 165.29 177.215 165.554 176.776C165.818 176.424 166.17 176.161 166.522 175.898C166.962 175.634 167.402 175.546 167.754 175.546C168.106 175.546 168.37 175.722 168.546 175.985C168.722 176.249 168.898 176.6 168.986 177.127C169.074 177.566 169.074 178.093 169.074 178.708V183.537H169.162Z" fill="#455A64"/>
<path d="M174.004 183.01C174.18 182.923 174.356 182.747 174.532 182.571C174.708 182.396 174.884 182.22 174.972 181.957C175.148 181.693 175.236 181.43 175.324 181.078C175.412 180.727 175.5 180.464 175.5 180.112V179.41C175.412 179.586 175.324 179.761 175.236 179.937C175.148 180.112 174.972 180.288 174.884 180.464C174.708 180.639 174.532 180.815 174.356 180.991C174.18 181.166 173.916 181.342 173.74 181.517C173.388 181.781 172.948 181.869 172.684 181.781C172.332 181.693 172.068 181.605 171.892 181.342C171.628 181.078 171.452 180.727 171.364 180.288C171.276 179.849 171.188 179.322 171.188 178.795C171.188 178.62 171.188 178.444 171.188 178.18C171.188 177.917 171.188 177.741 171.188 177.566C171.188 177.039 171.276 176.424 171.364 175.809C171.452 175.195 171.628 174.668 171.892 174.141C172.156 173.614 172.42 173.175 172.684 172.736C173.036 172.297 173.388 172.033 173.74 171.77C174.004 171.594 174.18 171.507 174.356 171.507C174.532 171.507 174.708 171.419 174.884 171.507C175.06 171.507 175.148 171.594 175.236 171.682C175.324 171.77 175.412 171.858 175.5 171.858V171.419C175.5 171.243 175.5 171.155 175.588 170.98C175.676 170.804 175.764 170.716 175.852 170.716L176.732 170.189C176.82 170.101 176.908 170.101 176.996 170.189C177.084 170.277 177.084 170.365 177.084 170.453V178.971C177.084 180.464 176.82 181.693 176.292 182.747C175.764 183.801 175.06 184.591 174.092 185.118C173.652 185.381 173.3 185.469 172.948 185.557C172.596 185.557 172.332 185.557 172.068 185.381C171.804 185.294 171.628 185.03 171.452 184.767C171.276 184.503 171.188 184.24 171.188 183.889C171.188 183.801 171.188 183.625 171.276 183.449C171.364 183.274 171.452 183.186 171.54 183.186L172.332 182.747C172.42 182.659 172.508 182.659 172.596 182.747C172.684 182.835 172.772 182.923 172.772 182.923C172.86 183.098 173.036 183.186 173.212 183.186C173.388 183.362 173.652 183.274 174.004 183.01ZM172.596 176.863C172.596 177.215 172.596 177.566 172.596 177.917C172.684 178.707 172.772 179.146 173.036 179.322C173.3 179.498 173.652 179.498 174.004 179.234C174.356 178.971 174.708 178.62 174.972 178.18C175.236 177.654 175.412 177.127 175.412 176.424C175.412 176.249 175.412 175.985 175.412 175.722C175.412 175.458 175.412 175.195 175.412 175.019C175.412 174.404 175.236 173.965 174.972 173.79C174.708 173.614 174.356 173.614 174.004 173.79C173.652 174.053 173.3 174.404 173.036 174.844C172.772 175.37 172.684 175.985 172.596 176.863Z" fill="#455A64"/>
<path d="M180.521 174.756C180.609 174.668 180.697 174.668 180.785 174.756C180.873 174.843 180.873 174.931 180.873 175.019V176.775C180.873 176.951 180.873 177.039 180.785 177.215C180.697 177.39 180.609 177.478 180.521 177.478L179.465 178.093C179.377 178.181 179.289 178.181 179.201 178.093C179.113 178.005 179.113 177.917 179.113 177.829V176.073C179.113 175.897 179.113 175.809 179.201 175.634C179.289 175.458 179.377 175.37 179.465 175.37L180.521 174.756Z" fill="#455A64"/>
<path d="M184.127 172.646C184.215 172.558 184.303 172.558 184.391 172.646C184.479 172.734 184.479 172.822 184.479 172.91V174.666C184.479 174.842 184.479 174.929 184.391 175.105C184.303 175.281 184.215 175.369 184.127 175.369L183.071 175.983C182.983 176.071 182.895 176.071 182.807 175.983C182.719 175.895 182.719 175.808 182.719 175.72V173.964C182.719 173.788 182.719 173.7 182.807 173.524C182.895 173.349 182.983 173.261 183.071 173.261L184.127 172.646Z" fill="#455A64"/>
<path d="M187.822 170.541C187.91 170.453 187.998 170.453 188.086 170.541C188.174 170.629 188.174 170.716 188.174 170.804V172.561C188.174 172.736 188.174 172.824 188.086 173C187.998 173.175 187.91 173.263 187.822 173.263L186.766 173.878C186.678 173.966 186.59 173.966 186.502 173.878C186.414 173.79 186.414 173.702 186.414 173.614V171.858C186.414 171.682 186.414 171.595 186.502 171.419C186.59 171.243 186.678 171.156 186.766 171.156L187.822 170.541Z" fill="#455A64"/>
<path opacity="0.3" d="M77.7167 301.734L243.53 206.191C244.851 205.488 246.875 205.488 248.195 206.191L250.923 207.684C252.244 208.386 252.244 209.616 250.923 210.406L85.1097 305.949C83.7895 306.652 81.7652 306.652 80.445 305.949L77.7167 304.457C76.3965 303.666 76.3965 302.437 77.7167 301.734Z" fill="#F5F5FA"/>
<path opacity="0.3" d="M90.7472 309.463L256.561 213.92C257.881 213.217 259.729 213.041 260.785 213.656L303.911 238.508C304.967 239.123 304.791 240.176 303.471 240.967L137.921 336.422C136.601 337.125 134.753 337.3 133.697 336.686L90.3071 311.922C89.251 311.307 89.427 310.165 90.7472 309.463Z" fill="#263238"/>
<path d="M234.382 254.053L239.575 251.067C239.839 250.979 239.839 250.716 239.663 250.628L234.734 247.73C234.558 247.642 234.206 247.642 233.942 247.73L228.749 250.716C228.485 250.804 228.485 251.067 228.661 251.155L233.59 254.053C233.854 254.141 234.206 254.141 234.382 254.053ZM226.813 243.691L221.62 246.676C221.356 246.764 221.356 247.027 221.532 247.115L226.461 250.013C226.637 250.101 226.989 250.101 227.253 250.013L232.446 247.027C232.71 246.94 232.71 246.676 232.534 246.588L227.605 243.691C227.429 243.515 227.077 243.603 226.813 243.691ZM210.091 253.35L201.29 258.444C201.026 258.531 201.026 258.795 201.202 258.883L206.13 261.781C206.306 261.868 206.658 261.868 206.922 261.781L215.724 256.687C215.988 256.599 215.988 256.336 215.812 256.248L210.883 253.35C210.619 253.175 210.267 253.262 210.091 253.35ZM219.244 248.081L214.051 251.067C213.787 251.155 213.787 251.418 213.963 251.506L218.892 254.404C219.068 254.492 219.42 254.492 219.684 254.404L224.877 251.418C225.141 251.33 225.141 251.067 224.965 250.979L220.036 248.081C219.772 247.906 219.508 247.906 219.244 248.081ZM198.913 259.761L193.721 262.746C193.457 262.834 193.457 263.098 193.633 263.186L198.561 266.083C198.737 266.171 199.089 266.171 199.353 266.083L204.546 263.098C204.81 263.01 204.81 262.746 204.634 262.659L199.705 259.761C199.441 259.673 199.089 259.673 198.913 259.761ZM191.256 264.152L186.064 267.137C185.8 267.225 185.8 267.489 185.976 267.576L190.904 270.474C191.08 270.562 191.432 270.562 191.696 270.474L196.889 267.489C197.153 267.401 197.153 267.137 196.977 267.049L192.048 264.152C191.872 264.064 191.52 264.064 191.256 264.152ZM210.795 275.831L215.988 272.845C216.164 272.757 216.252 272.494 216.076 272.406L211.147 269.508C210.971 269.42 210.619 269.42 210.355 269.508L205.162 272.494C204.898 272.582 204.898 272.845 205.074 272.933L210.003 275.831C210.179 276.007 210.531 276.007 210.795 275.831ZM203.138 280.222L208.331 277.236C208.595 277.148 208.595 276.885 208.419 276.797L203.49 273.899C203.314 273.811 202.962 273.811 202.698 273.899L197.505 276.885C197.241 276.973 197.241 277.236 197.417 277.324L202.346 280.222C202.61 280.397 202.962 280.31 203.138 280.222ZM195.569 284.613L200.762 281.627C201.026 281.539 201.026 281.276 200.85 281.188L195.921 278.29C195.745 278.202 195.393 278.202 195.129 278.29L189.936 281.276C189.672 281.363 189.672 281.627 189.848 281.715L194.777 284.613C195.041 284.7 195.393 284.7 195.569 284.613ZM188 289.003L193.193 286.018C193.457 285.93 193.457 285.666 193.281 285.579L188.352 282.681C188.176 282.593 187.824 282.593 187.56 282.681L182.367 285.666C182.103 285.754 182.103 286.018 182.279 286.105L187.208 289.003C187.472 289.091 187.736 289.091 188 289.003ZM226.813 258.444L232.006 255.458C232.27 255.37 232.27 255.107 232.094 255.019L227.165 252.121C226.989 252.033 226.637 252.033 226.373 252.121L221.18 255.107C220.916 255.194 220.916 255.458 221.092 255.546L226.021 258.444C226.285 258.531 226.637 258.531 226.813 258.444ZM218.364 271.44L229.981 264.766C230.245 264.678 230.245 264.415 230.069 264.327L218.012 257.39C217.836 257.302 217.484 257.302 217.22 257.39L211.235 260.815C210.971 260.902 210.971 261.166 211.147 261.254L217.572 264.942C217.748 265.03 217.748 265.293 217.484 265.381L212.731 268.103C212.467 268.191 212.467 268.454 212.643 268.542L217.572 271.44C217.748 271.616 218.1 271.616 218.364 271.44ZM183.687 268.542L178.495 271.528C178.231 271.616 178.231 271.879 178.407 271.967L183.335 274.865C183.511 274.953 183.863 274.953 184.127 274.865L189.32 271.879C189.584 271.791 189.584 271.528 189.408 271.44L184.48 268.542C184.215 268.367 183.951 268.454 183.687 268.542ZM176.118 272.933L170.926 275.919C170.662 276.007 170.662 276.27 170.838 276.358L175.766 279.256C175.942 279.344 176.294 279.344 176.558 279.256L181.751 276.27C182.015 276.182 182.015 275.919 181.839 275.831L176.911 272.933C176.646 272.757 176.294 272.757 176.118 272.933ZM134.137 319.563C134.313 319.651 134.665 319.651 134.929 319.563L140.122 316.577C140.386 316.49 140.386 316.226 140.21 316.138L135.281 313.24C135.105 313.153 134.753 313.153 134.489 313.24L129.296 316.226C129.032 316.314 129.032 316.577 129.208 316.665L134.137 319.563ZM115.39 307.884L110.198 310.869C109.934 310.957 109.934 311.221 110.11 311.308L115.038 314.206C115.214 314.294 115.566 314.294 115.831 314.206L121.023 311.221C121.287 311.133 121.287 310.869 121.111 310.782L116.183 307.884C115.919 307.708 115.654 307.796 115.39 307.884ZM124.984 316.665C125.16 316.753 125.512 316.753 125.776 316.665L130.968 313.68C131.233 313.592 131.233 313.328 131.057 313.24L126.128 310.343C125.952 310.255 125.6 310.255 125.336 310.343L120.143 313.328C119.879 313.416 119.879 313.679 120.055 313.767L124.984 316.665ZM145.93 321.319L151.123 318.334C151.387 318.246 151.387 317.982 151.211 317.895L146.282 314.997C146.106 314.909 145.754 314.909 145.49 314.997L140.298 317.982C140.122 318.07 140.034 318.334 140.21 318.422L145.138 321.319C145.402 321.495 145.754 321.495 145.93 321.319ZM137.569 325.71C137.745 325.798 138.097 325.798 138.361 325.71L143.554 322.725C143.818 322.637 143.818 322.373 143.642 322.285L138.714 319.388C138.537 319.3 138.185 319.3 137.921 319.388L132.729 322.373C132.465 322.461 132.465 322.725 132.641 322.812L137.569 325.71ZM122.959 303.493L117.767 306.479C117.503 306.566 117.503 306.83 117.679 306.918L122.607 309.816C122.783 309.903 123.135 309.903 123.4 309.816L128.592 306.83C128.856 306.742 128.856 306.479 128.68 306.391L123.752 303.493C123.576 303.405 123.223 303.405 122.959 303.493ZM160.892 281.627L155.7 284.613C155.436 284.7 155.436 284.964 155.612 285.052L160.54 287.95C160.716 288.037 161.068 288.037 161.332 287.95L166.525 284.964C166.789 284.876 166.789 284.613 166.613 284.525L161.685 281.627C161.508 281.539 161.156 281.539 160.892 281.627ZM130.528 299.102L125.336 302.088C125.072 302.176 125.072 302.439 125.248 302.527L130.176 305.425C130.352 305.513 130.704 305.513 130.968 305.425L136.161 302.439C136.425 302.351 136.425 302.088 136.249 302L131.321 299.102C131.145 299.014 130.792 299.014 130.528 299.102ZM168.549 277.324L163.357 280.31C163.093 280.397 163.093 280.661 163.269 280.749L168.197 283.647C168.373 283.734 168.725 283.734 168.989 283.647L174.182 280.661C174.446 280.573 174.446 280.31 174.27 280.222L169.342 277.324C169.077 277.148 168.725 277.148 168.549 277.324ZM153.323 286.018L148.131 289.003C147.867 289.091 147.867 289.355 148.043 289.442L152.971 292.34C153.147 292.428 153.499 292.428 153.763 292.34L158.956 289.355C159.22 289.267 159.22 289.003 159.044 288.916L154.116 286.018C153.94 285.93 153.587 285.93 153.323 286.018ZM145.754 290.408L140.562 293.394C140.298 293.482 140.298 293.745 140.474 293.833L145.402 296.731C145.578 296.819 145.93 296.819 146.194 296.731L151.387 293.745C151.651 293.658 151.651 293.394 151.475 293.306L146.547 290.408C146.283 290.233 145.93 290.233 145.754 290.408ZM138.185 294.799L132.993 297.785C132.729 297.873 132.729 298.136 132.905 298.224L137.833 301.122C138.009 301.21 138.361 301.21 138.625 301.122L143.818 298.136C144.082 298.048 144.082 297.785 143.906 297.697L138.978 294.799C138.714 294.624 138.361 294.624 138.185 294.799ZM172.774 297.697L177.967 294.711C178.231 294.624 178.231 294.36 178.055 294.272L173.126 291.374C172.95 291.287 172.598 291.287 172.334 291.374L167.141 294.36C166.877 294.448 166.877 294.711 167.053 294.799L171.982 297.697C172.246 297.873 172.598 297.873 172.774 297.697ZM243.623 234.031L238.431 237.017C238.167 237.104 238.167 237.368 238.343 237.456L243.271 240.354C243.447 240.441 243.799 240.441 244.063 240.354L249.256 237.368C249.52 237.28 249.52 237.017 249.344 236.929L244.415 234.031C244.151 233.855 243.799 233.855 243.623 234.031ZM234.47 239.3L229.277 242.285C229.013 242.373 229.013 242.637 229.189 242.725L234.118 245.622C234.294 245.71 234.646 245.71 234.91 245.622L240.103 242.637C240.367 242.549 240.367 242.285 240.191 242.198L235.262 239.3C234.998 239.212 234.646 239.212 234.47 239.3ZM251.192 229.64L246 232.626C245.736 232.714 245.736 232.977 245.912 233.065L250.84 235.963C251.016 236.051 251.368 236.051 251.632 235.963L256.825 232.977C257.089 232.889 257.089 232.626 256.913 232.538L251.984 229.64C251.72 229.552 251.456 229.552 251.192 229.64ZM209.211 268.542L214.403 265.557C214.667 265.469 214.667 265.205 214.491 265.117L209.563 262.22C209.387 262.132 209.035 262.132 208.771 262.22L203.578 265.205C203.314 265.293 203.314 265.557 203.49 265.644L208.419 268.542C208.683 268.63 209.035 268.63 209.211 268.542ZM259.553 225.249C259.377 225.161 259.025 225.161 258.761 225.249L253.569 228.235C253.305 228.323 253.305 228.586 253.481 228.674L258.409 231.572C258.585 231.66 258.937 231.66 259.201 231.572L264.394 228.586C264.658 228.498 264.658 228.235 264.482 228.147L259.553 225.249ZM180.431 293.306L185.624 290.321C185.888 290.233 185.888 289.969 185.712 289.881L180.783 286.984C180.607 286.896 180.255 286.896 179.991 286.984L174.798 289.969C174.534 290.057 174.534 290.321 174.71 290.408L179.639 293.306C179.815 293.482 180.167 293.482 180.431 293.306ZM273.459 239.739L278.652 236.753C278.916 236.665 278.916 236.402 278.74 236.314L273.811 233.416C273.635 233.328 273.283 233.328 273.019 233.416L267.826 236.402C267.562 236.49 267.562 236.753 267.738 236.841L272.667 239.739C272.931 239.827 273.283 239.827 273.459 239.739ZM258.761 240.002L263.954 237.017C264.218 236.929 264.218 236.665 264.042 236.577L259.113 233.68C258.937 233.592 258.585 233.592 258.321 233.68L253.128 236.665C252.864 236.753 252.864 237.017 253.04 237.104L257.969 240.002C258.233 240.178 258.585 240.09 258.761 240.002ZM266.682 229.377C266.506 229.289 266.154 229.289 265.89 229.377L260.697 232.362C260.433 232.45 260.433 232.714 260.609 232.801L265.538 235.699C265.714 235.787 266.066 235.787 266.33 235.699L271.523 232.714C271.787 232.626 271.787 232.362 271.611 232.274L266.682 229.377ZM268.266 228.411L280.324 235.348C280.5 235.436 280.852 235.436 281.116 235.348L286.309 232.362C286.573 232.274 286.573 232.011 286.397 231.923L274.339 224.986C274.163 224.898 273.811 224.898 273.547 224.986L268.354 227.972C268.09 228.147 268.002 228.323 268.266 228.411ZM250.752 238.07L245.559 241.056C245.295 241.144 245.295 241.407 245.471 241.495L250.4 244.393C250.576 244.481 250.928 244.481 251.192 244.393L256.385 241.407C256.649 241.319 256.649 241.056 256.473 240.968L251.544 238.07C251.28 237.982 250.928 237.982 250.752 238.07ZM193.633 271.001L188.44 273.987C188.176 274.075 188.176 274.338 188.352 274.426L193.281 277.324C193.457 277.412 193.809 277.412 194.073 277.324L199.265 274.338C199.529 274.25 199.529 273.987 199.353 273.899L194.425 271.001C194.161 270.913 193.809 270.913 193.633 271.001ZM265.098 244.13C265.274 244.217 265.626 244.217 265.89 244.13L271.083 241.144C271.347 241.056 271.347 240.793 271.171 240.705L266.242 237.807C266.066 237.719 265.714 237.719 265.45 237.807L260.257 240.793C259.993 240.88 259.993 241.144 260.169 241.232L265.098 244.13ZM201.202 266.61L196.009 269.596C195.745 269.684 195.745 269.947 195.921 270.035L200.85 272.933C201.026 273.021 201.378 273.021 201.642 272.933L206.834 269.947C207.098 269.86 207.098 269.596 206.922 269.508L201.994 266.61C201.73 266.523 201.378 266.523 201.202 266.61ZM141.706 315.26C141.882 315.348 142.234 315.348 142.498 315.26L147.691 312.274C147.955 312.187 147.955 311.923 147.779 311.835L142.85 308.937C142.674 308.85 142.322 308.85 142.058 308.937L136.865 311.923C136.601 312.011 136.601 312.274 136.777 312.362L141.706 315.26ZM132.905 305.952L127.712 308.937C127.448 309.025 127.448 309.289 127.624 309.377L132.553 312.274C132.729 312.362 133.081 312.362 133.345 312.274L138.537 309.289C138.802 309.201 138.802 308.937 138.625 308.85L133.697 305.952C133.433 305.864 133.081 305.864 132.905 305.952ZM150.067 310.782L155.26 307.796C155.524 307.708 155.524 307.445 155.348 307.357L150.419 304.459C150.243 304.371 149.891 304.371 149.627 304.459L144.434 307.445C144.17 307.532 144.17 307.796 144.346 307.884L149.275 310.782C149.451 310.957 149.803 310.957 150.067 310.782ZM157.636 306.479L162.829 303.493C163.093 303.405 163.093 303.142 162.917 303.054L157.988 300.156C157.812 300.068 157.46 300.068 157.196 300.156L152.003 303.142C151.739 303.229 151.739 303.493 151.915 303.581L156.844 306.479C157.108 306.566 157.372 306.566 157.636 306.479ZM165.205 302.088L170.398 299.102C170.662 299.014 170.662 298.751 170.486 298.663L165.557 295.765C165.381 295.677 165.029 295.677 164.765 295.765L159.572 298.751C159.308 298.839 159.308 299.102 159.484 299.19L164.413 302.088C164.677 302.176 165.029 302.176 165.205 302.088ZM140.474 301.649L135.281 304.634C135.017 304.722 135.017 304.986 135.193 305.074L140.122 307.972C140.298 308.059 140.65 308.059 140.914 307.972L146.106 304.986C146.371 304.898 146.371 304.634 146.194 304.547L141.266 301.649C141.002 301.473 140.65 301.473 140.474 301.649ZM148.043 297.258L142.85 300.244C142.586 300.332 142.586 300.595 142.762 300.683L147.691 303.581C147.867 303.669 148.219 303.669 148.483 303.581L153.675 300.595C153.94 300.507 153.939 300.244 153.763 300.156L148.835 297.258C148.571 297.082 148.307 297.082 148.043 297.258ZM178.407 279.783L173.214 282.768C172.95 282.856 172.95 283.12 173.126 283.208L178.055 286.105C178.231 286.193 178.583 286.193 178.847 286.105L184.039 283.12C184.303 283.032 184.303 282.768 184.127 282.681L179.199 279.783C178.935 279.607 178.671 279.607 178.407 279.783ZM170.838 284.173L165.645 287.159C165.381 287.247 165.381 287.51 165.557 287.598L170.486 290.496C170.662 290.584 171.014 290.584 171.278 290.496L176.47 287.51C176.734 287.423 176.734 287.159 176.558 287.071L171.63 284.173C171.366 283.998 171.014 283.998 170.838 284.173ZM185.976 275.392L180.783 278.378C180.519 278.465 180.519 278.729 180.695 278.817L185.624 281.715C185.8 281.802 186.152 281.802 186.416 281.715L191.608 278.729C191.872 278.641 191.872 278.378 191.696 278.29L186.768 275.392C186.592 275.216 186.24 275.304 185.976 275.392ZM155.612 292.867L150.419 295.853C150.155 295.941 150.155 296.204 150.331 296.292L155.26 299.19C155.436 299.278 155.788 299.278 156.052 299.19L161.244 296.204C161.508 296.116 161.508 295.853 161.332 295.765L156.404 292.867C156.228 292.779 155.876 292.779 155.612 292.867ZM163.269 288.476L158.076 291.462C157.812 291.55 157.812 291.813 157.988 291.901L162.917 294.799C163.093 294.887 163.445 294.887 163.709 294.799L168.901 291.813C169.165 291.726 169.165 291.462 168.989 291.374L164.061 288.476C163.797 288.389 163.445 288.389 163.269 288.476ZM153.587 317.017L158.78 314.031C159.044 313.943 159.044 313.68 158.868 313.592L153.939 310.694C153.763 310.606 153.411 310.606 153.147 310.694L147.955 313.68C147.691 313.767 147.691 314.031 147.867 314.119L152.795 317.017C152.971 317.104 153.323 317.104 153.587 317.017ZM113.542 315.085L108.614 312.187C108.438 312.099 108.086 312.099 107.821 312.187L102.629 315.172C102.365 315.26 102.365 315.524 102.541 315.611L107.469 318.509C107.645 318.597 107.997 318.597 108.262 318.509L113.454 315.524C113.718 315.436 113.718 315.172 113.542 315.085ZM123.4 317.543L118.471 314.645C118.295 314.558 117.943 314.558 117.679 314.645L109.67 319.212C109.406 319.3 109.406 319.563 109.582 319.651L114.51 322.549C114.686 322.637 115.038 322.637 115.302 322.549L123.312 317.982C123.576 317.895 123.576 317.719 123.4 317.543ZM106.149 309.464L101.221 306.566C101.045 306.479 100.693 306.479 100.428 306.566L94.0037 310.255C93.7396 310.343 93.7396 310.606 93.9156 310.694L98.8443 313.592C99.0203 313.68 99.3724 313.68 99.6364 313.592L106.061 309.903C106.325 309.728 106.325 309.552 106.149 309.464ZM110.99 306.654C111.166 306.742 111.518 306.742 111.782 306.654L116.975 303.669C117.239 303.581 117.239 303.317 117.063 303.229L112.134 300.332C111.958 300.244 111.606 300.244 111.342 300.332L106.149 303.317C105.885 303.405 105.885 303.669 106.061 303.756L110.99 306.654ZM132.553 320.529L127.624 317.631C127.448 317.543 127.096 317.543 126.832 317.631L116.887 323.427C116.623 323.515 116.623 323.778 116.799 323.866L121.727 326.764C121.903 326.852 122.255 326.852 122.519 326.764L132.465 320.968C132.729 320.793 132.729 320.617 132.553 320.529ZM135.985 326.676L131.057 323.778C130.88 323.69 130.528 323.69 130.264 323.778L123.84 327.467C123.576 327.554 123.576 327.818 123.752 327.906L128.68 330.804C128.856 330.891 129.208 330.891 129.472 330.804L135.897 327.115C136.161 326.94 136.249 326.764 135.985 326.676ZM167.405 274.075C167.581 274.163 167.933 274.163 168.197 274.075L173.39 271.089C173.654 271.001 173.654 270.738 173.478 270.65L168.549 267.752C168.373 267.664 168.021 267.664 167.757 267.752L162.565 270.738C162.301 270.826 162.301 271.089 162.477 271.177L167.405 274.075ZM152.267 282.856C152.443 282.944 152.795 282.944 153.059 282.856L158.252 279.871C158.516 279.783 158.516 279.519 158.34 279.431L153.411 276.534C153.235 276.446 152.883 276.446 152.619 276.534L147.427 279.519C147.163 279.607 147.163 279.871 147.339 279.958L152.267 282.856ZM118.559 302.263C118.735 302.351 119.087 302.351 119.351 302.263L124.544 299.278C124.808 299.19 124.808 298.926 124.632 298.839L119.703 295.941C119.527 295.853 119.175 295.853 118.911 295.941L113.718 298.926C113.454 299.014 113.454 299.278 113.63 299.366L118.559 302.263ZM159.836 278.465C160.012 278.553 160.364 278.553 160.628 278.465L165.821 275.48C166.085 275.392 166.085 275.128 165.909 275.041L160.98 272.143C160.804 272.055 160.452 272.055 160.188 272.143L154.996 275.128C154.732 275.216 154.732 275.48 154.908 275.568L159.836 278.465ZM144.698 287.247C144.874 287.335 145.226 287.335 145.49 287.247L150.683 284.261C150.947 284.173 150.947 283.91 150.771 283.822L145.842 280.924C145.666 280.836 145.314 280.836 145.05 280.924L139.858 283.91C139.594 283.998 139.594 284.261 139.77 284.349L144.698 287.247ZM139.77 326.94C139.594 326.852 139.242 326.852 138.978 326.94L130.968 331.506C130.704 331.594 130.704 331.857 130.88 331.945L135.809 334.843C135.985 334.931 136.337 334.931 136.601 334.843L144.61 330.277C144.874 330.189 144.874 329.925 144.698 329.838L139.77 326.94ZM133.785 293.482C133.961 293.57 134.313 293.57 134.577 293.482L139.77 290.496C140.034 290.408 140.034 290.145 139.858 290.057L134.929 287.159C134.753 287.071 134.401 287.071 134.137 287.159L128.944 290.145C128.68 290.233 128.68 290.496 128.856 290.584L133.785 293.482ZM126.216 297.873C126.392 297.961 126.744 297.961 127.008 297.873L132.201 294.887C132.465 294.799 132.465 294.536 132.289 294.448L127.36 291.55C127.184 291.462 126.832 291.462 126.568 291.55L121.375 294.536C121.111 294.624 121.111 294.887 121.287 294.975L126.216 297.873ZM280.324 245.974C280.148 245.886 279.796 245.886 279.532 245.974L266.77 253.35C266.506 253.438 266.506 253.701 266.682 253.789L271.611 256.687C271.787 256.775 272.139 256.775 272.403 256.687L285.165 249.311C285.429 249.223 285.429 248.959 285.253 248.872L280.324 245.974ZM263.602 255.633C263.426 255.546 263.074 255.546 262.81 255.633L257.617 258.619C257.353 258.707 257.353 258.97 257.529 259.058L262.458 261.956C262.634 262.044 262.986 262.044 263.25 261.956L268.442 258.97C268.707 258.883 268.707 258.619 268.531 258.531L263.602 255.633ZM161.156 312.626L166.349 309.64C166.613 309.552 166.613 309.289 166.437 309.201L161.508 306.303C161.332 306.215 160.98 306.215 160.716 306.303L155.524 309.289C155.26 309.377 155.26 309.64 155.436 309.728L160.364 312.626C160.54 312.714 160.892 312.714 161.156 312.626ZM248.376 264.415C248.2 264.327 247.848 264.327 247.584 264.415L242.391 267.401C242.127 267.489 242.127 267.752 242.303 267.84L247.232 270.738C247.408 270.826 247.76 270.826 248.024 270.738L253.217 267.752C253.481 267.664 253.481 267.401 253.305 267.313L248.376 264.415ZM287.893 241.583C287.717 241.495 287.365 241.495 287.101 241.583L281.908 244.569C281.644 244.656 281.644 244.92 281.82 245.008L286.749 247.906C286.925 247.993 287.277 247.993 287.541 247.906L292.734 244.92C292.998 244.832 292.998 244.569 292.822 244.481L287.893 241.583ZM300.479 240.09L288.421 233.153C288.245 233.065 287.893 233.065 287.629 233.153L282.436 236.138C282.172 236.226 282.172 236.49 282.348 236.577L294.406 243.515C294.582 243.603 294.934 243.603 295.198 243.515L300.391 240.529C300.655 240.441 300.655 240.178 300.479 240.09ZM220.036 280.749C219.86 280.661 219.508 280.661 219.244 280.749L212.819 284.437C212.555 284.525 212.555 284.788 212.731 284.876L217.66 287.774C217.836 287.862 218.188 287.862 218.452 287.774L224.877 284.086C225.141 283.998 225.141 283.734 224.965 283.647L220.036 280.749ZM239.223 269.684C239.047 269.596 238.695 269.596 238.431 269.684L230.422 274.25C230.157 274.338 230.158 274.602 230.334 274.689L235.262 277.587C235.438 277.675 235.79 277.675 236.054 277.587L244.063 273.021C244.327 272.933 244.327 272.67 244.151 272.582L239.223 269.684ZM202.434 290.847C202.258 290.76 201.906 290.76 201.642 290.847L158.868 315.436C158.604 315.524 158.604 315.787 158.78 315.875L163.709 318.773C163.885 318.861 164.237 318.861 164.501 318.773L207.274 294.184C207.539 294.097 207.539 293.833 207.363 293.745L202.434 290.847ZM157.284 316.841C157.108 316.753 156.756 316.753 156.492 316.841L150.067 320.529C149.803 320.617 149.803 320.88 149.979 320.968L154.908 323.866C155.084 323.954 155.436 323.954 155.7 323.866L162.125 320.178C162.389 320.09 162.389 319.827 162.213 319.739L157.284 316.841ZM211.235 285.754C211.059 285.666 210.707 285.666 210.443 285.754L204.018 289.442C203.754 289.53 203.754 289.794 203.93 289.881L208.859 292.779C209.035 292.867 209.387 292.867 209.651 292.779L216.076 289.091C216.34 289.003 216.34 288.74 216.164 288.652L211.235 285.754ZM148.571 321.934C148.395 321.846 148.043 321.846 147.779 321.934L141.354 325.622C141.09 325.71 141.09 325.974 141.266 326.061L146.194 328.959C146.371 329.047 146.723 329.047 146.987 328.959L153.411 325.271C153.675 325.183 153.675 324.92 153.499 324.832L148.571 321.934ZM228.837 275.655C228.661 275.568 228.309 275.568 228.045 275.655L221.62 279.344C221.356 279.431 221.356 279.695 221.532 279.783L226.461 282.681C226.637 282.768 226.989 282.768 227.253 282.681L233.678 278.992C233.942 278.905 233.942 278.641 233.766 278.553L228.837 275.655ZM255.945 260.024C255.769 259.936 255.417 259.936 255.153 260.024L249.96 263.01C249.696 263.098 249.696 263.361 249.872 263.449L254.801 266.347C254.977 266.435 255.329 266.435 255.593 266.347L260.785 263.361C261.05 263.273 261.05 263.01 260.874 262.922L255.945 260.024ZM273.019 248.169L278.212 245.183C278.476 245.096 278.476 244.832 278.3 244.744L273.371 241.846C273.195 241.759 272.843 241.759 272.579 241.846L267.386 244.832C267.122 244.92 267.122 245.183 267.298 245.271L272.227 248.169C272.403 248.345 272.755 248.345 273.019 248.169ZM242.039 249.662L247.232 246.676C247.496 246.588 247.496 246.325 247.32 246.237L242.391 243.339C242.215 243.251 241.863 243.251 241.599 243.339L236.406 246.325C236.142 246.413 236.142 246.676 236.318 246.764L241.247 249.662C241.423 249.838 241.775 249.75 242.039 249.662ZM221.884 277.675L237.022 268.894C237.286 268.806 237.286 268.542 237.11 268.455L232.182 265.557C232.006 265.469 231.654 265.469 231.39 265.557L216.252 274.338C215.988 274.426 215.988 274.689 216.164 274.777L221.092 277.675C221.268 277.763 221.62 277.763 221.884 277.675ZM264.658 252.56C264.834 252.648 265.186 252.648 265.45 252.56L270.643 249.574C270.907 249.486 270.907 249.223 270.731 249.135L265.802 246.237C265.626 246.149 265.274 246.149 265.01 246.237L259.817 249.223C259.553 249.311 259.553 249.574 259.729 249.662L264.658 252.56ZM258.321 248.433L263.514 245.447C263.778 245.359 263.778 245.096 263.602 245.008L258.673 242.11C258.497 242.022 258.145 242.022 257.881 242.11L252.688 245.096C252.424 245.183 252.424 245.447 252.6 245.535L257.529 248.433C257.705 248.608 258.057 248.608 258.321 248.433ZM214.227 281.978L219.42 278.992C219.684 278.905 219.684 278.641 219.508 278.553L214.579 275.655C214.403 275.568 214.051 275.568 213.787 275.655L208.595 278.641C208.331 278.729 208.331 278.992 208.507 279.08L213.435 281.978C213.699 282.154 214.051 282.154 214.227 281.978ZM247.848 262.22C248.024 262.307 248.376 262.307 248.64 262.22L253.833 259.234C254.097 259.146 254.097 258.883 253.921 258.795L248.992 255.897C248.816 255.809 248.464 255.809 248.2 255.897L243.007 258.883C242.743 258.97 242.743 259.234 242.919 259.322L247.848 262.22ZM176.294 303.844L181.487 300.858C181.751 300.771 181.751 300.507 181.575 300.419L176.646 297.521C176.47 297.434 176.118 297.434 175.854 297.521L170.662 300.507C170.398 300.595 170.398 300.858 170.574 300.946L175.502 303.844C175.766 304.02 176.118 304.02 176.294 303.844ZM183.863 299.453L189.056 296.468C189.32 296.38 189.32 296.116 189.144 296.029L184.215 293.131C184.039 293.043 183.687 293.043 183.423 293.131L178.231 296.116C177.967 296.204 177.967 296.468 178.143 296.555L183.071 299.453C183.335 299.629 183.687 299.629 183.863 299.453ZM168.725 308.235L173.918 305.249C174.182 305.161 174.182 304.898 174.006 304.81L169.077 301.912C168.901 301.824 168.549 301.824 168.285 301.912L163.093 304.898C162.829 304.986 162.829 305.249 163.005 305.337L167.933 308.235C168.197 308.411 168.461 308.323 168.725 308.235ZM199.089 290.76L204.282 287.774C204.546 287.686 204.546 287.423 204.37 287.335L199.441 284.437C199.265 284.349 198.913 284.349 198.649 284.437L193.457 287.423C193.193 287.51 193.193 287.774 193.369 287.862L198.297 290.76C198.561 290.847 198.825 290.847 199.089 290.76ZM191.52 295.15L196.713 292.165C196.977 292.077 196.977 291.813 196.801 291.726L191.872 288.828C191.696 288.74 191.344 288.74 191.08 288.828L185.888 291.813C185.624 291.901 185.624 292.165 185.8 292.252L190.728 295.15C190.904 295.238 191.256 295.238 191.52 295.15ZM206.658 286.369L211.851 283.383C212.115 283.295 212.115 283.032 211.939 282.944L207.01 280.046C206.834 279.958 206.482 279.958 206.218 280.046L201.026 283.032C200.762 283.12 200.762 283.383 200.938 283.471L205.866 286.369C206.13 286.545 206.482 286.545 206.658 286.369ZM248.112 225.513C248.288 225.6 248.64 225.6 248.904 225.513L254.097 222.527C254.361 222.439 254.361 222.176 254.185 222.088L252.864 221.298C252.688 221.21 252.336 221.21 252.072 221.298L246.88 224.283C246.704 224.371 246.616 224.635 246.792 224.722L248.112 225.513ZM210.355 249.399C210.531 249.486 210.883 249.486 211.147 249.399L216.34 246.413C216.604 246.325 216.604 246.062 216.428 245.974L211.499 243.076C211.323 242.988 210.971 242.988 210.707 243.076L205.514 246.062C205.25 246.149 205.25 246.413 205.426 246.501L210.355 249.399ZM225.581 240.617C225.757 240.705 226.109 240.705 226.373 240.617L231.566 237.631C231.83 237.543 231.83 237.28 231.654 237.192L226.725 234.294C226.549 234.206 226.197 234.206 225.933 234.294L220.74 237.28C220.476 237.368 220.476 237.631 220.652 237.719L225.581 240.617ZM201.114 254.755C201.29 254.843 201.642 254.843 201.906 254.755L207.098 251.77C207.363 251.682 207.362 251.418 207.186 251.33L202.258 248.433C202.082 248.345 201.73 248.345 201.466 248.433L196.273 251.418C196.009 251.506 196.009 251.77 196.185 251.857L201.114 254.755ZM217.924 245.008C218.1 245.096 218.452 245.096 218.716 245.008L223.909 242.022C224.173 241.934 224.173 241.671 223.997 241.583L219.068 238.685C218.892 238.597 218.54 238.597 218.276 238.685L213.083 241.671C212.819 241.759 212.819 242.022 212.995 242.11L217.924 245.008ZM185.888 263.449C186.064 263.537 186.416 263.537 186.68 263.449L191.872 260.463C192.136 260.375 192.137 260.112 191.96 260.024L187.032 257.126C186.856 257.038 186.504 257.038 186.24 257.126L181.047 260.112C180.783 260.2 180.783 260.463 180.959 260.551L185.888 263.449ZM193.545 259.058C193.721 259.146 194.073 259.146 194.337 259.058L199.529 256.073C199.794 255.985 199.794 255.721 199.617 255.633L194.689 252.735C194.513 252.648 194.161 252.648 193.897 252.735L188.704 255.721C188.44 255.809 188.44 256.073 188.616 256.16L193.545 259.058ZM232.886 234.294C233.062 234.382 233.414 234.382 233.678 234.294L238.871 231.309C239.135 231.221 239.135 230.957 238.959 230.869L237.638 230.079C237.462 229.991 237.11 229.991 236.846 230.079L231.654 233.065C231.39 233.153 231.39 233.416 231.566 233.504L232.886 234.294ZM255.681 221.21C255.857 221.298 256.209 221.298 256.473 221.21L261.666 218.224C261.93 218.136 261.93 217.873 261.754 217.785L260.433 216.995C260.257 216.907 259.905 216.907 259.641 216.995L254.449 219.98C254.185 220.068 254.185 220.332 254.361 220.419L255.681 221.21ZM266.154 227.181C266.33 227.269 266.682 227.269 266.946 227.181L272.139 224.195C272.403 224.108 272.403 223.844 272.227 223.756L267.298 220.858C267.122 220.771 266.77 220.771 266.506 220.858L261.314 223.844C261.05 223.932 261.05 224.195 261.226 224.283L266.154 227.181ZM280.588 243.778L285.781 240.793C286.045 240.705 286.045 240.441 285.869 240.354L280.94 237.456C280.764 237.368 280.412 237.368 280.148 237.456L274.955 240.441C274.691 240.529 274.691 240.793 274.867 240.88L279.796 243.778C279.972 243.954 280.324 243.954 280.588 243.778ZM240.455 229.903C240.631 229.991 240.983 229.991 241.247 229.903L246.44 226.918C246.704 226.83 246.704 226.566 246.528 226.479L245.207 225.688C245.031 225.6 244.679 225.6 244.415 225.688L239.223 228.674C238.959 228.762 238.959 229.025 239.135 229.113L240.455 229.903ZM178.319 267.84C178.495 267.928 178.847 267.928 179.111 267.84L184.303 264.854C184.568 264.766 184.568 264.503 184.391 264.415L179.463 261.517C179.287 261.429 178.935 261.429 178.671 261.517L173.478 264.503C173.214 264.591 173.214 264.854 173.39 264.942L178.319 267.84Z" fill="#263238"/>
<path opacity="0.4" d="M200.758 306.918L201.814 307.533L230.154 323.779L280.408 294.8L281.464 294.185L252.157 277.324L200.758 306.918Z" fill="#F5F5FA"/>
<path d="M201.812 307.534L230.152 323.78L280.407 294.801L252.155 278.555L201.812 307.534Z" fill="#02BBA9"/>
<path opacity="0.45" d="M201.812 307.534L230.152 323.78L280.407 294.801L252.155 278.555L201.812 307.534Z" fill="#F5F5FA"/>
<path d="M55.8033 301.646C56.2434 301.91 56.6835 302.085 57.2115 302.261C56.6835 302.085 56.1554 301.91 55.8033 301.646C55.6273 301.558 55.5393 301.471 55.3633 301.383C55.4513 301.471 55.6273 301.558 55.8033 301.646Z" fill="#02BBA9"/>
<path d="M63.9023 302.085C63.9023 301.998 63.9904 301.998 63.9023 302.085C63.9904 301.998 63.9904 301.998 63.9023 302.085Z" fill="#02BBA9"/>
<path d="M388.314 0.438571L276.54 64.8074C275.572 65.4221 274.691 66.7393 274.691 67.9688V192.843C274.691 193.984 275.484 195.389 276.54 195.916L279.884 197.76C280.852 198.287 282.524 198.287 283.493 197.76L395.267 133.391C396.235 132.777 397.115 131.459 397.115 130.23V5.35624C397.115 4.21464 396.323 2.80959 395.267 2.2827L391.923 0.438571C390.955 -0.176138 389.282 -0.176138 388.314 0.438571Z" fill="#FAFAFA"/>
<path d="M281.645 196.707V71.8329C281.645 70.6913 282.437 69.2862 283.493 68.6715L395.267 4.39049C396.236 3.77578 397.116 4.30267 397.116 5.44427V130.318C397.116 131.46 396.324 132.865 395.267 133.479L283.493 197.848C282.437 198.375 281.645 197.848 281.645 196.707Z" fill="#37474F"/>
<path d="M283.493 197.762C282.524 198.288 280.764 198.376 279.884 197.762L276.54 195.917C275.572 195.391 274.691 193.985 274.691 192.844V67.9701C274.691 67.3554 274.955 66.7407 275.307 66.126L282.172 70.0777C281.82 70.6046 281.644 71.3071 281.644 71.834V196.708C281.644 197.762 282.436 198.376 283.493 197.762Z" fill="#263238"/>
<path d="M397.023 5.0928C396.847 4.21464 396.143 3.86338 395.263 4.39027L283.488 68.7591C282.96 69.0225 282.52 69.5494 282.168 70.0763L275.215 66.1246C275.567 65.5977 276.007 65.1587 276.447 64.8074L388.222 0.438571C389.19 -0.176138 390.862 -0.176138 391.83 0.438571L395.175 2.2827C396.143 2.80959 396.935 3.95119 397.023 5.0928Z" fill="#455A64"/>
<path d="M261.136 142.612C259.992 141.91 254.711 138.924 254.447 138.748C253.655 138.221 253.303 136.992 254.095 136.202L274.866 113.896L281.643 117.76L260.872 140.066C260.08 140.944 260.344 142.085 261.136 142.612Z" fill="#FAFAFA"/>
<path d="M261.136 142.612C259.992 141.91 254.711 138.924 254.447 138.748C253.655 138.221 253.303 136.992 254.095 136.202L274.866 113.896L281.643 117.76L260.872 140.066C260.08 140.944 260.344 142.085 261.136 142.612Z" fill="#455A64"/>
<path d="M281.644 117.849L260.874 140.154C259.817 141.295 260.698 143.052 262.194 142.964L281.644 141.383V117.849Z" fill="#FAFAFA"/>
<path d="M281.644 117.849L260.874 140.154C259.817 141.295 260.698 143.052 262.194 142.964L281.644 141.383V117.849Z" fill="#37474F"/>
<path d="M345.452 107.751C343.868 106.785 341.668 106.873 339.203 108.366C334.363 111.176 330.402 118.025 330.402 123.645C330.402 126.456 331.37 128.388 332.955 129.353C334.011 129.968 337.971 132.251 338.939 132.866C340.524 133.832 342.724 133.656 345.188 132.251C350.029 129.441 353.989 122.592 353.989 116.971C353.989 114.161 353.021 112.229 351.437 111.263C350.381 110.561 346.42 108.366 345.452 107.751Z" fill="#EBEBEB"/>
<path d="M348.359 129.617L330.932 119.606C330.58 120.923 330.316 122.328 330.316 123.557C330.316 126.368 331.285 128.299 332.869 129.265C333.925 129.88 337.885 132.163 338.854 132.778C340.438 133.744 342.638 133.568 345.102 132.163C346.246 131.461 347.391 130.67 348.359 129.617Z" fill="#E0E0E0"/>
<path d="M345.188 111.792C340.347 114.603 336.387 121.452 336.387 127.072C336.387 132.693 340.347 134.976 345.188 132.166C350.029 129.356 353.989 122.506 353.989 116.886C353.989 111.266 350.029 108.982 345.188 111.792Z" fill="#FAFAFA"/>
<path d="M345.193 115.391C342.025 117.235 339.473 121.626 339.473 125.226C339.473 128.827 342.025 130.32 345.193 128.476C348.362 126.632 350.914 122.241 350.914 118.64C350.826 115.04 348.274 113.547 345.193 115.391Z" fill="#37474F"/>
<path d="M383.387 99.8486C383.387 100.639 383.387 101.341 383.299 102.22L373.354 107.928L367.369 104.503C367.369 103.8 367.369 102.834 367.369 102.22C367.369 95.4578 365.785 90.0132 362.969 86.1493L371.066 74.6455L377.051 78.0703C381.099 83.1636 383.387 90.5401 383.387 99.8486Z" fill="#02BBA9"/>
<path d="M383.387 99.8459C383.387 100.636 383.387 101.339 383.299 102.217L373.354 107.925C373.354 107.222 373.354 106.256 373.354 105.642C373.354 98.8799 371.769 93.4354 368.953 89.5715L377.05 78.0676C381.099 83.1609 383.387 90.5374 383.387 99.8459Z" fill="#02BBA9"/>
<path opacity="0.1" d="M368.954 89.5721L362.969 86.1473L371.066 74.5557L377.051 78.0683L368.954 89.5721Z" fill="#F5F5FA"/>
<path opacity="0.2" d="M373.44 105.642C373.44 106.344 373.44 107.31 373.44 107.925L367.455 104.5C367.455 103.797 367.455 102.831 367.455 102.217C367.455 95.4549 365.871 90.0104 363.055 86.1465L369.039 89.5713C371.768 93.4352 373.44 98.8798 373.44 105.642Z" fill="#F5F5FA"/>
<path d="M375.287 75.259L367.278 86.7629L361.293 83.3381C361.205 83.2502 361.029 83.1624 360.941 83.0746C358.565 82.3721 355.836 82.1965 353.02 82.5477L347.035 79.1229L350.028 66.3018C355.836 65.4237 361.029 66.3018 365.254 68.7607C366.222 69.2876 369.83 71.3951 371.15 72.0977C371.414 72.2733 371.678 72.3611 371.942 72.5367C372.118 72.6246 372.294 72.8002 372.471 72.888C372.647 72.9758 372.823 73.1514 372.999 73.2393C373.087 73.3271 373.263 73.4149 373.351 73.5027C373.879 73.854 374.319 74.293 374.759 74.6443C374.847 74.8199 375.023 74.9956 375.287 75.259Z" fill="#02BBA9"/>
<path opacity="0.2" d="M367.192 86.6736L361.208 83.2488L360.855 82.9854C363.32 83.6879 365.432 84.9173 367.192 86.6736Z" fill="#F5F5FA"/>
<path opacity="0.2" d="M375.286 75.2587L367.277 86.7626C363.669 83.25 358.74 81.6693 353.02 82.4596L356.012 69.6385C363.669 68.4091 370.446 70.4289 375.286 75.2587Z" fill="white"/>
<path opacity="0.1" d="M349.854 66.126L355.926 69.6386L352.934 82.4597L346.949 78.947L349.854 66.126Z" fill="#F5F5FA"/>
<path opacity="0.5" d="M365.167 68.5849C366.135 69.1118 369.744 71.2194 371.064 71.9219C366.84 69.5509 361.647 68.6727 355.926 69.5509L349.941 66.1261C355.662 65.2479 360.855 66.126 365.167 68.5849Z" fill="white"/>
<path d="M353.02 70.2546L350.028 83.0757C347.387 83.7782 344.571 84.9198 341.666 86.5883C338.762 88.2568 335.946 90.3644 333.217 92.7354L327.232 89.3106L324.328 79.8265C327.937 76.5774 331.633 73.8551 335.594 71.5719C339.554 69.2887 343.339 67.708 346.947 66.8298L353.02 70.2546Z" fill="#02BBA9"/>
<path opacity="0.05" d="M324.328 79.7393L330.401 83.2519L333.305 92.6481L327.233 89.2233L324.328 79.7393Z" fill="#F5F5FA"/>
<path opacity="0.6" d="M353.022 70.2539C349.413 71.1321 345.541 72.7127 341.668 74.9959C337.796 77.2792 334.011 80.0014 330.403 83.2506L324.418 79.8258C328.026 76.5766 331.723 73.8543 335.683 71.5711C339.644 69.2879 343.428 67.7073 347.037 66.8291L353.022 70.2539Z" fill="white"/>
<path opacity="0.4" d="M353.02 70.2539L350.027 83.075C347.387 83.7775 344.57 84.9191 341.666 86.5876C338.762 88.2561 335.945 90.3637 333.217 92.7347L330.312 83.2506C333.921 80.0014 337.617 77.2792 341.578 74.9959C345.539 72.7127 349.411 71.1321 353.02 70.2539Z" fill="white"/>
<path d="M330.405 95.3708C325.036 100.815 320.459 107.402 316.939 114.427L309.106 111.617L303.121 108.192C307.874 98.62 314.211 89.6628 321.515 82.4619L327.5 85.8867L330.405 95.3708Z" fill="#02BBA9"/>
<path opacity="0.7" d="M327.5 85.8867C320.195 93.0876 313.859 102.045 309.106 111.617L303.121 108.192C307.874 98.62 314.211 89.6628 321.515 82.4619L327.5 85.8867Z" fill="white"/>
<path opacity="0.6" d="M330.404 95.3708C325.036 100.815 320.371 107.402 316.938 114.427L309.105 111.617C313.858 102.045 320.195 93.0876 327.5 85.8867L330.404 95.3708Z" fill="white"/>
<path d="M315.178 118.377C312.009 125.753 310.161 133.042 309.985 140.243L299.864 146.038L293.879 142.614C294.055 132.778 296.783 122.153 301.272 112.142L309.193 114.952L315.178 118.377Z" fill="#02BBA9"/>
<path opacity="0.6" d="M307.258 115.477L301.273 112.052L309.106 114.862L315.179 118.375L307.258 115.477Z" fill="white"/>
<path opacity="0.9" d="M307.257 115.477C302.768 125.575 300.04 136.113 299.864 145.949L293.879 142.524C294.055 132.688 296.783 122.063 301.272 112.052L307.257 115.477Z" fill="white"/>
<path opacity="0.75" d="M315.177 118.374C312.009 125.751 310.161 133.039 309.985 140.24L299.863 146.036C300.039 136.201 302.768 125.575 307.256 115.564L315.177 118.374Z" fill="white"/>
<path d="M378.634 95.1925L377.05 94.2266L333.66 127.86L333.836 134.27L335.42 135.149L378.634 95.1925Z" fill="#E0E0E0"/>
<path d="M335.422 135.147L335.246 128.737L378.636 95.1914L335.422 135.147Z" fill="#EBEBEB"/>
<path d="M333.66 127.86L335.244 128.738L378.634 95.1925L377.05 94.2266L333.66 127.86Z" fill="white"/>
</g>
<defs>
<clipPath id="clip0">
<rect width="420" height="400" fill="white"/>
</clipPath>
</defs>
</svg>
